<mxfile host="app.diagrams.net" modified="2024-01-09T23:52:15.266Z" agent="Mozilla/5.0 (Windows NT 10.0; Win64; x64) AppleWebKit/537.36 (KHTML, like Gecko) Chrome/120.0.0.0 Safari/537.36" etag="IWvmq4x8rtQXB-vfKDhl" version="22.1.18" type="device">
  <diagram name="Page-1" id="2ca16b54-16f6-2749-3443-fa8db7711227">
    <mxGraphModel dx="3725" dy="2175" grid="1" gridSize="10" guides="1" tooltips="1" connect="1" arrows="1" fold="1" page="1" pageScale="1" pageWidth="1100" pageHeight="850" background="none" math="0" shadow="0">
      <root>
        <mxCell id="0" />
        <mxCell id="1" parent="0" />
        <mxCell id="pcymy3f7spwM8y5cspfm-36" value="" style="endArrow=block;endFill=1;html=1;edgeStyle=orthogonalEdgeStyle;align=left;verticalAlign=top;rounded=0;entryX=0.25;entryY=0;entryDx=0;entryDy=0;exitX=1.004;exitY=0.061;exitDx=0;exitDy=0;exitPerimeter=0;" parent="1" source="VqmjkEThSfLMJ_1UgzTR-104" target="VqmjkEThSfLMJ_1UgzTR-76" edge="1">
          <mxGeometry x="-1" relative="1" as="geometry">
            <mxPoint x="400" y="80" as="sourcePoint" />
            <mxPoint x="255" y="110" as="targetPoint" />
          </mxGeometry>
        </mxCell>
        <mxCell id="pcymy3f7spwM8y5cspfm-38" value="1" style="edgeLabel;html=1;align=center;verticalAlign=middle;resizable=0;points=[];" parent="pcymy3f7spwM8y5cspfm-36" vertex="1" connectable="0">
          <mxGeometry x="0.772" relative="1" as="geometry">
            <mxPoint as="offset" />
          </mxGeometry>
        </mxCell>
        <mxCell id="pcymy3f7spwM8y5cspfm-39" value="1" style="edgeLabel;html=1;align=center;verticalAlign=middle;resizable=0;points=[];" parent="pcymy3f7spwM8y5cspfm-36" vertex="1" connectable="0">
          <mxGeometry x="-0.765" y="1" relative="1" as="geometry">
            <mxPoint x="9" as="offset" />
          </mxGeometry>
        </mxCell>
        <mxCell id="pcymy3f7spwM8y5cspfm-45" value="M" style="text;html=1;align=center;verticalAlign=middle;resizable=0;points=[];autosize=1;strokeColor=none;fillColor=none;" parent="1" vertex="1">
          <mxGeometry x="120" y="170" width="30" height="30" as="geometry" />
        </mxCell>
        <mxCell id="pcymy3f7spwM8y5cspfm-47" value="" style="endArrow=block;endFill=1;html=1;edgeStyle=orthogonalEdgeStyle;align=left;verticalAlign=top;rounded=0;exitX=0.5;exitY=0;exitDx=0;exitDy=0;entryX=-0.012;entryY=0.081;entryDx=0;entryDy=0;entryPerimeter=0;" parent="1" source="VqmjkEThSfLMJ_1UgzTR-76" target="VqmjkEThSfLMJ_1UgzTR-62" edge="1">
          <mxGeometry x="-1" relative="1" as="geometry">
            <mxPoint x="300" y="-20" as="sourcePoint" />
            <mxPoint x="1090" y="80.00000000000023" as="targetPoint" />
          </mxGeometry>
        </mxCell>
        <mxCell id="pcymy3f7spwM8y5cspfm-48" value="1" style="edgeLabel;resizable=0;html=1;align=left;verticalAlign=bottom;" parent="pcymy3f7spwM8y5cspfm-47" connectable="0" vertex="1">
          <mxGeometry x="-1" relative="1" as="geometry">
            <mxPoint x="5" y="-20" as="offset" />
          </mxGeometry>
        </mxCell>
        <mxCell id="pcymy3f7spwM8y5cspfm-49" value="" style="endArrow=block;endFill=1;html=1;edgeStyle=orthogonalEdgeStyle;align=left;verticalAlign=top;rounded=0;exitX=0;exitY=0.5;exitDx=0;exitDy=0;entryX=0.25;entryY=0;entryDx=0;entryDy=0;" parent="1" source="VqmjkEThSfLMJ_1UgzTR-104" target="VqmjkEThSfLMJ_1UgzTR-157" edge="1">
          <mxGeometry x="-1" relative="1" as="geometry">
            <mxPoint x="30" y="-90" as="sourcePoint" />
            <mxPoint x="30" y="160" as="targetPoint" />
          </mxGeometry>
        </mxCell>
        <mxCell id="pcymy3f7spwM8y5cspfm-50" value="1" style="edgeLabel;resizable=0;html=1;align=left;verticalAlign=bottom;" parent="pcymy3f7spwM8y5cspfm-49" connectable="0" vertex="1">
          <mxGeometry x="-1" relative="1" as="geometry">
            <mxPoint x="-27" y="-12" as="offset" />
          </mxGeometry>
        </mxCell>
        <mxCell id="pcymy3f7spwM8y5cspfm-56" value="" style="endArrow=block;endFill=1;html=1;edgeStyle=orthogonalEdgeStyle;align=left;verticalAlign=top;rounded=0;entryX=0.25;entryY=0;entryDx=0;entryDy=0;exitX=1.001;exitY=0.088;exitDx=0;exitDy=0;exitPerimeter=0;" parent="1" source="VqmjkEThSfLMJ_1UgzTR-197" target="VqmjkEThSfLMJ_1UgzTR-187" edge="1">
          <mxGeometry x="-1" relative="1" as="geometry">
            <mxPoint x="-110" y="800" as="sourcePoint" />
            <mxPoint x="95" y="850" as="targetPoint" />
          </mxGeometry>
        </mxCell>
        <mxCell id="pcymy3f7spwM8y5cspfm-57" value="1" style="edgeLabel;resizable=0;html=1;align=left;verticalAlign=bottom;" parent="pcymy3f7spwM8y5cspfm-56" connectable="0" vertex="1">
          <mxGeometry x="-1" relative="1" as="geometry">
            <mxPoint x="10" y="20" as="offset" />
          </mxGeometry>
        </mxCell>
        <mxCell id="pcymy3f7spwM8y5cspfm-58" value="" style="endArrow=block;endFill=1;html=1;edgeStyle=orthogonalEdgeStyle;align=left;verticalAlign=top;rounded=0;entryX=0.78;entryY=-0.007;entryDx=0;entryDy=0;exitX=0;exitY=0.5;exitDx=0;exitDy=0;entryPerimeter=0;" parent="1" source="VqmjkEThSfLMJ_1UgzTR-157" target="VqmjkEThSfLMJ_1UgzTR-197" edge="1">
          <mxGeometry x="-1" relative="1" as="geometry">
            <mxPoint x="-70" y="418" as="sourcePoint" />
            <mxPoint x="-200" y="650" as="targetPoint" />
          </mxGeometry>
        </mxCell>
        <mxCell id="pcymy3f7spwM8y5cspfm-59" value="1" style="edgeLabel;resizable=0;html=1;align=left;verticalAlign=bottom;" parent="pcymy3f7spwM8y5cspfm-58" connectable="0" vertex="1">
          <mxGeometry x="-1" relative="1" as="geometry">
            <mxPoint x="-20" y="23" as="offset" />
          </mxGeometry>
        </mxCell>
        <mxCell id="pcymy3f7spwM8y5cspfm-60" value="1" style="text;html=1;align=center;verticalAlign=middle;resizable=0;points=[];autosize=1;strokeColor=none;fillColor=none;" parent="1" vertex="1">
          <mxGeometry x="110" y="640" width="30" height="30" as="geometry" />
        </mxCell>
        <mxCell id="pcymy3f7spwM8y5cspfm-61" value="1" style="text;html=1;align=center;verticalAlign=middle;resizable=0;points=[];autosize=1;strokeColor=none;fillColor=none;" parent="1" vertex="1">
          <mxGeometry x="-200" y="591.25" width="30" height="30" as="geometry" />
        </mxCell>
        <mxCell id="pcymy3f7spwM8y5cspfm-63" value="M" style="text;html=1;align=center;verticalAlign=middle;resizable=0;points=[];autosize=1;strokeColor=none;fillColor=none;" parent="1" vertex="1">
          <mxGeometry x="1500" y="448" width="30" height="30" as="geometry" />
        </mxCell>
        <mxCell id="pcymy3f7spwM8y5cspfm-65" value="" style="endArrow=block;endFill=1;html=1;edgeStyle=orthogonalEdgeStyle;align=left;verticalAlign=top;rounded=0;exitX=0;exitY=1;exitDx=0;exitDy=0;entryX=1;entryY=0;entryDx=0;entryDy=0;" parent="1" source="VqmjkEThSfLMJ_1UgzTR-76" target="VqmjkEThSfLMJ_1UgzTR-91" edge="1">
          <mxGeometry x="-1" relative="1" as="geometry">
            <mxPoint x="165" y="110" as="sourcePoint" />
            <mxPoint x="450" y="-215" as="targetPoint" />
            <Array as="points">
              <mxPoint x="1060" y="270" />
              <mxPoint x="1020" y="270" />
              <mxPoint x="1020" y="310" />
              <mxPoint x="1000" y="310" />
              <mxPoint x="1000" y="60" />
            </Array>
          </mxGeometry>
        </mxCell>
        <mxCell id="pcymy3f7spwM8y5cspfm-66" value="1" style="edgeLabel;resizable=0;html=1;align=left;verticalAlign=bottom;" parent="pcymy3f7spwM8y5cspfm-65" connectable="0" vertex="1">
          <mxGeometry x="-1" relative="1" as="geometry">
            <mxPoint x="75" y="30" as="offset" />
          </mxGeometry>
        </mxCell>
        <mxCell id="pcymy3f7spwM8y5cspfm-67" value="" style="endArrow=block;endFill=1;html=1;edgeStyle=orthogonalEdgeStyle;align=left;verticalAlign=top;rounded=0;exitX=0;exitY=0.5;exitDx=0;exitDy=0;entryX=1;entryY=0;entryDx=0;entryDy=0;" parent="1" source="VqmjkEThSfLMJ_1UgzTR-91" target="VqmjkEThSfLMJ_1UgzTR-157" edge="1">
          <mxGeometry x="-1" relative="1" as="geometry">
            <mxPoint x="175" y="120" as="sourcePoint" />
            <mxPoint x="260" y="350" as="targetPoint" />
          </mxGeometry>
        </mxCell>
        <mxCell id="pcymy3f7spwM8y5cspfm-69" value="" style="endArrow=block;endFill=1;html=1;edgeStyle=orthogonalEdgeStyle;align=left;verticalAlign=top;rounded=0;exitX=0.5;exitY=0;exitDx=0;exitDy=0;entryX=-0.001;entryY=0.018;entryDx=0;entryDy=0;entryPerimeter=0;" parent="1" source="dwipJbro_CzZKavcGM6B-1" target="VqmjkEThSfLMJ_1UgzTR-157" edge="1">
          <mxGeometry x="-1" relative="1" as="geometry">
            <mxPoint x="-440" y="298" as="sourcePoint" />
            <mxPoint x="65" y="238" as="targetPoint" />
          </mxGeometry>
        </mxCell>
        <mxCell id="pcymy3f7spwM8y5cspfm-70" value="1" style="edgeLabel;resizable=0;html=1;align=left;verticalAlign=bottom;" parent="pcymy3f7spwM8y5cspfm-69" connectable="0" vertex="1">
          <mxGeometry x="-1" relative="1" as="geometry">
            <mxPoint x="5" y="30" as="offset" />
          </mxGeometry>
        </mxCell>
        <mxCell id="pcymy3f7spwM8y5cspfm-71" value="M" style="text;html=1;align=center;verticalAlign=middle;resizable=0;points=[];autosize=1;strokeColor=none;fillColor=none;" parent="1" vertex="1">
          <mxGeometry x="710" y="160" width="30" height="30" as="geometry" />
        </mxCell>
        <mxCell id="pcymy3f7spwM8y5cspfm-72" value="M" style="text;html=1;align=center;verticalAlign=middle;resizable=0;points=[];autosize=1;strokeColor=none;fillColor=none;" parent="1" vertex="1">
          <mxGeometry x="230" y="478" width="30" height="30" as="geometry" />
        </mxCell>
        <mxCell id="pcymy3f7spwM8y5cspfm-73" value="M" style="text;html=1;align=center;verticalAlign=middle;resizable=0;points=[];autosize=1;strokeColor=none;fillColor=none;" parent="1" vertex="1">
          <mxGeometry x="850" y="140" width="30" height="30" as="geometry" />
        </mxCell>
        <mxCell id="pcymy3f7spwM8y5cspfm-76" value="M" style="text;html=1;align=center;verticalAlign=middle;resizable=0;points=[];autosize=1;strokeColor=none;fillColor=none;" parent="1" vertex="1">
          <mxGeometry x="670" y="630" width="30" height="30" as="geometry" />
        </mxCell>
        <mxCell id="pcymy3f7spwM8y5cspfm-81" value="1" style="text;html=1;align=center;verticalAlign=middle;resizable=0;points=[];autosize=1;strokeColor=none;fillColor=none;" parent="1" vertex="1">
          <mxGeometry x="-20" y="140" width="30" height="30" as="geometry" />
        </mxCell>
        <mxCell id="VqmjkEThSfLMJ_1UgzTR-2" value="" style="endArrow=block;endFill=1;html=1;edgeStyle=orthogonalEdgeStyle;align=left;verticalAlign=top;rounded=0;exitX=0;exitY=1;exitDx=0;exitDy=0;entryX=1;entryY=0.25;entryDx=0;entryDy=0;" parent="1" source="VqmjkEThSfLMJ_1UgzTR-76" target="VqmjkEThSfLMJ_1UgzTR-125" edge="1">
          <mxGeometry x="-1" relative="1" as="geometry">
            <mxPoint x="1000" y="240" as="sourcePoint" />
            <mxPoint x="810" y="600" as="targetPoint" />
          </mxGeometry>
        </mxCell>
        <mxCell id="VqmjkEThSfLMJ_1UgzTR-4" value="M" style="text;html=1;align=center;verticalAlign=middle;resizable=0;points=[];autosize=1;strokeColor=none;fillColor=none;" parent="1" vertex="1">
          <mxGeometry x="820" y="218" width="30" height="30" as="geometry" />
        </mxCell>
        <mxCell id="VqmjkEThSfLMJ_1UgzTR-7" value="" style="endArrow=block;endFill=1;html=1;edgeStyle=orthogonalEdgeStyle;align=left;verticalAlign=top;rounded=0;exitX=0.75;exitY=1;exitDx=0;exitDy=0;entryX=0.933;entryY=1.151;entryDx=0;entryDy=0;entryPerimeter=0;" parent="1" target="VqmjkEThSfLMJ_1UgzTR-155" edge="1" source="VqmjkEThSfLMJ_1UgzTR-76">
          <mxGeometry x="-1" relative="1" as="geometry">
            <mxPoint x="1106.25" y="267.75" as="sourcePoint" />
            <mxPoint x="660" y="989.7500000000005" as="targetPoint" />
          </mxGeometry>
        </mxCell>
        <mxCell id="VqmjkEThSfLMJ_1UgzTR-9" value="M" style="text;html=1;align=center;verticalAlign=middle;resizable=0;points=[];autosize=1;strokeColor=none;fillColor=none;" parent="1" vertex="1">
          <mxGeometry x="660" y="960" width="30" height="30" as="geometry" />
        </mxCell>
        <mxCell id="VqmjkEThSfLMJ_1UgzTR-11" value="" style="endArrow=block;endFill=1;html=1;edgeStyle=orthogonalEdgeStyle;align=left;verticalAlign=top;rounded=0;exitX=0;exitY=1;exitDx=0;exitDy=0;entryX=0.5;entryY=0;entryDx=0;entryDy=0;" parent="1" source="VqmjkEThSfLMJ_1UgzTR-91" target="VqmjkEThSfLMJ_1UgzTR-147" edge="1">
          <mxGeometry x="-1" relative="1" as="geometry">
            <mxPoint x="1020" y="290" as="sourcePoint" />
            <mxPoint x="630" y="705" as="targetPoint" />
          </mxGeometry>
        </mxCell>
        <mxCell id="VqmjkEThSfLMJ_1UgzTR-12" value="1" style="edgeLabel;resizable=0;html=1;align=left;verticalAlign=bottom;" parent="VqmjkEThSfLMJ_1UgzTR-11" connectable="0" vertex="1">
          <mxGeometry x="-1" relative="1" as="geometry">
            <mxPoint x="510" y="34" as="offset" />
          </mxGeometry>
        </mxCell>
        <mxCell id="VqmjkEThSfLMJ_1UgzTR-13" value="M" style="text;html=1;align=center;verticalAlign=middle;resizable=0;points=[];autosize=1;strokeColor=none;fillColor=none;" parent="1" vertex="1">
          <mxGeometry x="450" y="650" width="30" height="30" as="geometry" />
        </mxCell>
        <mxCell id="VqmjkEThSfLMJ_1UgzTR-19" value="&lt;br&gt;1" style="text;html=1;align=center;verticalAlign=middle;resizable=0;points=[];autosize=1;strokeColor=none;fillColor=none;fontSize=16;" parent="1" vertex="1">
          <mxGeometry x="278" y="410" width="30" height="50" as="geometry" />
        </mxCell>
        <mxCell id="VqmjkEThSfLMJ_1UgzTR-21" value="1" style="text;html=1;align=center;verticalAlign=middle;resizable=0;points=[];autosize=1;strokeColor=none;fillColor=none;fontSize=16;" parent="1" vertex="1">
          <mxGeometry x="720" y="210" width="30" height="30" as="geometry" />
        </mxCell>
        <mxCell id="VqmjkEThSfLMJ_1UgzTR-22" style="edgeStyle=none;curved=1;rounded=0;orthogonalLoop=1;jettySize=auto;html=1;exitX=0.25;exitY=0;exitDx=0;exitDy=0;fontSize=12;startSize=8;endSize=8;" parent="1" edge="1">
          <mxGeometry relative="1" as="geometry">
            <mxPoint x="1090" y="307" as="sourcePoint" />
            <mxPoint x="1090" y="307" as="targetPoint" />
          </mxGeometry>
        </mxCell>
        <mxCell id="VqmjkEThSfLMJ_1UgzTR-33" value="" style="endArrow=block;endFill=1;html=1;edgeStyle=orthogonalEdgeStyle;align=left;verticalAlign=top;rounded=0;entryX=0.75;entryY=1;entryDx=0;entryDy=0;exitX=-0.012;exitY=0.043;exitDx=0;exitDy=0;exitPerimeter=0;" parent="1" source="VqmjkEThSfLMJ_1UgzTR-53" target="VqmjkEThSfLMJ_1UgzTR-91" edge="1">
          <mxGeometry x="-1" relative="1" as="geometry">
            <mxPoint x="1087.81" y="383.308" as="sourcePoint" />
            <mxPoint x="646" y="350" as="targetPoint" />
          </mxGeometry>
        </mxCell>
        <mxCell id="VqmjkEThSfLMJ_1UgzTR-34" value="1" style="edgeLabel;resizable=0;html=1;align=left;verticalAlign=bottom;" parent="VqmjkEThSfLMJ_1UgzTR-33" connectable="0" vertex="1">
          <mxGeometry x="-1" relative="1" as="geometry">
            <mxPoint x="-20" as="offset" />
          </mxGeometry>
        </mxCell>
        <mxCell id="VqmjkEThSfLMJ_1UgzTR-35" value="M" style="text;html=1;align=center;verticalAlign=middle;resizable=0;points=[];autosize=1;strokeColor=none;fillColor=none;" parent="1" vertex="1">
          <mxGeometry x="950" y="650" width="30" height="30" as="geometry" />
        </mxCell>
        <mxCell id="VqmjkEThSfLMJ_1UgzTR-36" value="" style="endArrow=block;endFill=1;html=1;edgeStyle=orthogonalEdgeStyle;align=left;verticalAlign=top;rounded=0;exitX=0.25;exitY=1;exitDx=0;exitDy=0;entryX=0.642;entryY=0.025;entryDx=0;entryDy=0;entryPerimeter=0;" parent="1" source="VqmjkEThSfLMJ_1UgzTR-91" target="VqmjkEThSfLMJ_1UgzTR-125" edge="1">
          <mxGeometry x="-1" relative="1" as="geometry">
            <mxPoint x="975" y="100" as="sourcePoint" />
            <mxPoint x="790" y="550" as="targetPoint" />
          </mxGeometry>
        </mxCell>
        <mxCell id="VqmjkEThSfLMJ_1UgzTR-37" value="1" style="edgeLabel;resizable=0;html=1;align=left;verticalAlign=bottom;rotation=90;" parent="VqmjkEThSfLMJ_1UgzTR-36" connectable="0" vertex="1">
          <mxGeometry x="-1" relative="1" as="geometry">
            <mxPoint x="-12" y="28" as="offset" />
          </mxGeometry>
        </mxCell>
        <mxCell id="VqmjkEThSfLMJ_1UgzTR-40" value="1" style="edgeLabel;resizable=0;html=1;align=left;verticalAlign=bottom;" parent="1" connectable="0" vertex="1">
          <mxGeometry x="835" y="606.2500000000002" as="geometry" />
        </mxCell>
        <mxCell id="VqmjkEThSfLMJ_1UgzTR-42" value="1" style="edgeLabel;resizable=0;html=1;align=left;verticalAlign=bottom;" parent="1" connectable="0" vertex="1">
          <mxGeometry x="1060" y="70" as="geometry" />
        </mxCell>
        <mxCell id="VqmjkEThSfLMJ_1UgzTR-43" value="" style="endArrow=block;endFill=1;html=1;edgeStyle=orthogonalEdgeStyle;align=left;verticalAlign=top;rounded=0;entryX=0.5;entryY=0;entryDx=0;entryDy=0;exitX=0.5;exitY=1;exitDx=0;exitDy=0;" parent="1" source="VqmjkEThSfLMJ_1UgzTR-62" target="VqmjkEThSfLMJ_1UgzTR-53" edge="1">
          <mxGeometry x="-1" relative="1" as="geometry">
            <mxPoint x="1300" y="140" as="sourcePoint" />
            <mxPoint x="1250.5" y="313" as="targetPoint" />
          </mxGeometry>
        </mxCell>
        <mxCell id="VqmjkEThSfLMJ_1UgzTR-44" value="1" style="edgeLabel;resizable=0;html=1;align=left;verticalAlign=bottom;" parent="VqmjkEThSfLMJ_1UgzTR-43" connectable="0" vertex="1">
          <mxGeometry x="-1" relative="1" as="geometry">
            <mxPoint x="-10" y="20" as="offset" />
          </mxGeometry>
        </mxCell>
        <mxCell id="VqmjkEThSfLMJ_1UgzTR-48" value="" style="endArrow=block;endFill=1;html=1;edgeStyle=orthogonalEdgeStyle;align=left;verticalAlign=top;rounded=0;exitX=1;exitY=0.25;exitDx=0;exitDy=0;entryX=0.03;entryY=0.115;entryDx=0;entryDy=0;entryPerimeter=0;" parent="1" source="VqmjkEThSfLMJ_1UgzTR-157" target="VqmjkEThSfLMJ_1UgzTR-125" edge="1">
          <mxGeometry x="-1" relative="1" as="geometry">
            <mxPoint x="450" y="700" as="sourcePoint" />
            <mxPoint x="700" y="600" as="targetPoint" />
          </mxGeometry>
        </mxCell>
        <mxCell id="VqmjkEThSfLMJ_1UgzTR-49" value="M" style="edgeLabel;resizable=0;html=1;align=left;verticalAlign=bottom;" parent="VqmjkEThSfLMJ_1UgzTR-48" connectable="0" vertex="1">
          <mxGeometry x="-1" relative="1" as="geometry">
            <mxPoint x="26" as="offset" />
          </mxGeometry>
        </mxCell>
        <mxCell id="VqmjkEThSfLMJ_1UgzTR-53" value="Address" style="swimlane;fontStyle=1;align=center;verticalAlign=top;childLayout=stackLayout;horizontal=1;startSize=26;horizontalStack=0;resizeParent=1;resizeParentMax=0;resizeLast=0;collapsible=1;marginBottom=0;whiteSpace=wrap;html=1;fontSize=16;" parent="1" vertex="1">
          <mxGeometry x="1430" y="488.75" width="200" height="290" as="geometry">
            <mxRectangle x="1218" y="470" width="130" height="30" as="alternateBounds" />
          </mxGeometry>
        </mxCell>
        <mxCell id="VqmjkEThSfLMJ_1UgzTR-54" value="&lt;font style=&quot;font-size: 15px;&quot;&gt;-&amp;nbsp; Id:int&lt;/font&gt;" style="text;strokeColor=none;fillColor=none;align=left;verticalAlign=top;spacingLeft=4;spacingRight=4;overflow=hidden;rotatable=0;points=[[0,0.5],[1,0.5]];portConstraint=eastwest;whiteSpace=wrap;html=1;fontSize=16;" parent="VqmjkEThSfLMJ_1UgzTR-53" vertex="1">
          <mxGeometry y="26" width="200" height="30" as="geometry" />
        </mxCell>
        <mxCell id="VqmjkEThSfLMJ_1UgzTR-61" value="&lt;table style=&quot;border-color: var(--border-color); font-family: Verdana; width: 319px; font-size: 15px;&quot; cellpadding=&quot;2&quot; cellspacing=&quot;0&quot;&gt;&lt;tbody style=&quot;border-color: var(--border-color);&quot;&gt;&lt;tr style=&quot;border-color: var(--border-color);&quot;&gt;&lt;td style=&quot;border-color: var(--border-color);&quot;&gt;&lt;font style=&quot;font-size: 15px;&quot;&gt;- Profile:profile&lt;/font&gt;&lt;/td&gt;&lt;/tr&gt;&lt;tr style=&quot;border-color: var(--border-color);&quot;&gt;&lt;/tr&gt;&lt;/tbody&gt;&lt;/table&gt;" style="text;strokeColor=none;fillColor=none;align=left;verticalAlign=top;spacingLeft=4;spacingRight=4;overflow=hidden;rotatable=0;points=[[0,0.5],[1,0.5]];portConstraint=eastwest;whiteSpace=wrap;html=1;fontSize=16;" parent="VqmjkEThSfLMJ_1UgzTR-53" vertex="1">
          <mxGeometry y="56" width="200" height="34" as="geometry" />
        </mxCell>
        <mxCell id="VqmjkEThSfLMJ_1UgzTR-57" value="&lt;table style=&quot;border-color: var(--border-color); font-family: Verdana; font-size: 15px; width: 319px;&quot; cellpadding=&quot;2&quot; cellspacing=&quot;0&quot;&gt;&lt;tbody style=&quot;border-color: var(--border-color);&quot;&gt;&lt;tr style=&quot;border-color: var(--border-color);&quot;&gt;&lt;td style=&quot;border-color: var(--border-color);&quot;&gt;&lt;/td&gt;&lt;/tr&gt;&lt;tr style=&quot;border-color: var(--border-color);&quot;&gt;&lt;td style=&quot;border-color: var(--border-color);&quot;&gt;-Orders:orders&lt;/td&gt;&lt;/tr&gt;&lt;tr style=&quot;border-color: var(--border-color);&quot;&gt;&lt;td style=&quot;border-color: var(--border-color);&quot;&gt;&lt;br style=&quot;border-color: var(--border-color);&quot;&gt;&lt;/td&gt;&lt;/tr&gt;&lt;/tbody&gt;&lt;/table&gt;" style="text;strokeColor=none;fillColor=none;align=left;verticalAlign=top;spacingLeft=4;spacingRight=4;overflow=hidden;rotatable=0;points=[[0,0.5],[1,0.5]];portConstraint=eastwest;whiteSpace=wrap;html=1;fontSize=16;" parent="VqmjkEThSfLMJ_1UgzTR-53" vertex="1">
          <mxGeometry y="90" width="200" height="40" as="geometry" />
        </mxCell>
        <mxCell id="VqmjkEThSfLMJ_1UgzTR-58" value="&lt;table style=&quot;border-color: var(--border-color); font-family: Verdana; font-size: 14px; width: 319px;&quot; cellpadding=&quot;2&quot; cellspacing=&quot;0&quot;&gt;&lt;tbody style=&quot;border-color: var(--border-color);&quot;&gt;&lt;tr style=&quot;border-color: var(--border-color);&quot;&gt;&lt;td style=&quot;border-color: var(--border-color);&quot;&gt;&lt;/td&gt;&lt;/tr&gt;&lt;tr style=&quot;border-color: var(--border-color);&quot;&gt;&lt;td style=&quot;border-color: var(--border-color);&quot;&gt;-city:String&lt;/td&gt;&lt;/tr&gt;&lt;tr style=&quot;border-color: var(--border-color);&quot;&gt;&lt;td style=&quot;border-color: var(--border-color);&quot;&gt;&lt;br style=&quot;border-color: var(--border-color);&quot;&gt;&lt;/td&gt;&lt;/tr&gt;&lt;/tbody&gt;&lt;/table&gt;" style="text;strokeColor=none;fillColor=none;align=left;verticalAlign=top;spacingLeft=4;spacingRight=4;overflow=hidden;rotatable=0;points=[[0,0.5],[1,0.5]];portConstraint=eastwest;whiteSpace=wrap;html=1;fontSize=16;" parent="VqmjkEThSfLMJ_1UgzTR-53" vertex="1">
          <mxGeometry y="130" width="200" height="36" as="geometry" />
        </mxCell>
        <mxCell id="VqmjkEThSfLMJ_1UgzTR-60" value="&lt;table style=&quot;border-color: var(--border-color); font-family: Verdana; font-size: 1em; width: 319px;&quot; cellpadding=&quot;2&quot; cellspacing=&quot;0&quot;&gt;&lt;tbody style=&quot;border-color: var(--border-color);&quot;&gt;&lt;tr style=&quot;border-color: var(--border-color);&quot;&gt;&lt;td style=&quot;border-color: var(--border-color);&quot;&gt;-street:String&lt;/td&gt;&lt;/tr&gt;&lt;tr style=&quot;border-color: var(--border-color);&quot;&gt;&lt;/tr&gt;&lt;/tbody&gt;&lt;/table&gt;" style="text;strokeColor=none;fillColor=none;align=left;verticalAlign=top;spacingLeft=4;spacingRight=4;overflow=hidden;rotatable=0;points=[[0,0.5],[1,0.5]];portConstraint=eastwest;whiteSpace=wrap;html=1;fontSize=16;" parent="VqmjkEThSfLMJ_1UgzTR-53" vertex="1">
          <mxGeometry y="166" width="200" height="26" as="geometry" />
        </mxCell>
        <mxCell id="VqmjkEThSfLMJ_1UgzTR-55" value="" style="line;strokeWidth=1;fillColor=none;align=left;verticalAlign=middle;spacingTop=-1;spacingLeft=3;spacingRight=3;rotatable=0;labelPosition=right;points=[];portConstraint=eastwest;strokeColor=inherit;fontSize=16;" parent="VqmjkEThSfLMJ_1UgzTR-53" vertex="1">
          <mxGeometry y="192" width="200" height="8" as="geometry" />
        </mxCell>
        <mxCell id="VqmjkEThSfLMJ_1UgzTR-56" value="+CRED:Void" style="text;strokeColor=none;fillColor=none;align=left;verticalAlign=top;spacingLeft=4;spacingRight=4;overflow=hidden;rotatable=0;points=[[0,0.5],[1,0.5]];portConstraint=eastwest;whiteSpace=wrap;html=1;fontSize=16;" parent="VqmjkEThSfLMJ_1UgzTR-53" vertex="1">
          <mxGeometry y="200" width="200" height="26" as="geometry" />
        </mxCell>
        <mxCell id="VqmjkEThSfLMJ_1UgzTR-59" value="+GetByCity:Address" style="text;strokeColor=none;fillColor=none;align=left;verticalAlign=top;spacingLeft=4;spacingRight=4;overflow=hidden;rotatable=0;points=[[0,0.5],[1,0.5]];portConstraint=eastwest;whiteSpace=wrap;html=1;fontSize=16;" parent="VqmjkEThSfLMJ_1UgzTR-53" vertex="1">
          <mxGeometry y="226" width="200" height="26" as="geometry" />
        </mxCell>
        <mxCell id="VqmjkEThSfLMJ_1UgzTR-71" value="&lt;table style=&quot;border-color: var(--border-color); font-family: Verdana; font-size: 1em; width: 319px;&quot; cellpadding=&quot;2&quot; cellspacing=&quot;0&quot;&gt;&lt;tbody style=&quot;border-color: var(--border-color);&quot;&gt;&lt;tr style=&quot;border-color: var(--border-color);&quot;&gt;&lt;td style=&quot;border-color: var(--border-color);&quot;&gt;+GetByCus:List&amp;lt;add&amp;gt;&lt;br&gt;&lt;br&gt;&lt;/td&gt;&lt;/tr&gt;&lt;/tbody&gt;&lt;/table&gt;" style="text;strokeColor=none;fillColor=none;align=left;verticalAlign=top;spacingLeft=4;spacingRight=4;overflow=hidden;rotatable=0;points=[[0,0.5],[1,0.5]];portConstraint=eastwest;whiteSpace=wrap;html=1;fontSize=16;" parent="VqmjkEThSfLMJ_1UgzTR-53" vertex="1">
          <mxGeometry y="252" width="200" height="38" as="geometry" />
        </mxCell>
        <mxCell id="VqmjkEThSfLMJ_1UgzTR-62" value="Profile" style="swimlane;fontStyle=1;align=center;verticalAlign=top;childLayout=stackLayout;horizontal=1;startSize=26;horizontalStack=0;resizeParent=1;resizeParentMax=0;resizeLast=0;collapsible=1;marginBottom=0;whiteSpace=wrap;html=1;fontSize=16;" parent="1" vertex="1">
          <mxGeometry x="1500" y="20" width="200" height="270" as="geometry">
            <mxRectangle x="1320" y="-1" width="90" height="30" as="alternateBounds" />
          </mxGeometry>
        </mxCell>
        <mxCell id="VqmjkEThSfLMJ_1UgzTR-63" value="-&amp;nbsp; Id:int" style="text;strokeColor=none;fillColor=none;align=left;verticalAlign=top;spacingLeft=4;spacingRight=4;overflow=hidden;rotatable=0;points=[[0,0.5],[1,0.5]];portConstraint=eastwest;whiteSpace=wrap;html=1;fontSize=16;" parent="VqmjkEThSfLMJ_1UgzTR-62" vertex="1">
          <mxGeometry y="26" width="200" height="30" as="geometry" />
        </mxCell>
        <mxCell id="VqmjkEThSfLMJ_1UgzTR-65" value="&lt;table style=&quot;border-color: var(--border-color); font-family: Verdana; font-size: 14px; width: 180px;&quot; cellpadding=&quot;2&quot; cellspacing=&quot;0&quot;&gt;&lt;tbody style=&quot;border-color: var(--border-color);&quot;&gt;&lt;tr style=&quot;border-color: var(--border-color);&quot;&gt;&lt;td style=&quot;border-color: var(--border-color);&quot;&gt;&lt;font style=&quot;font-size: 14px;&quot;&gt;-Customer:customer&lt;/font&gt;&lt;/td&gt;&lt;/tr&gt;&lt;tr style=&quot;border-color: var(--border-color);&quot;&gt;&lt;/tr&gt;&lt;/tbody&gt;&lt;/table&gt;" style="text;strokeColor=none;fillColor=none;align=left;verticalAlign=top;spacingLeft=4;spacingRight=4;overflow=hidden;rotatable=0;points=[[0,0.5],[1,0.5]];portConstraint=eastwest;whiteSpace=wrap;html=1;fontSize=16;" parent="VqmjkEThSfLMJ_1UgzTR-62" vertex="1">
          <mxGeometry y="56" width="200" height="40" as="geometry" />
        </mxCell>
        <mxCell id="VqmjkEThSfLMJ_1UgzTR-64" value="&lt;table style=&quot;border-color: var(--border-color); font-family: Verdana; font-size: 14px; width: 180px;&quot; cellpadding=&quot;2&quot; cellspacing=&quot;0&quot;&gt;&lt;tbody style=&quot;border-color: var(--border-color);&quot;&gt;&lt;tr style=&quot;border-color: var(--border-color);&quot;&gt;&lt;td style=&quot;border-color: var(--border-color);&quot;&gt;&lt;/td&gt;&lt;/tr&gt;&lt;tr style=&quot;border-color: var(--border-color);&quot;&gt;&lt;td style=&quot;border-color: var(--border-color);&quot;&gt;-Address:Address&lt;/td&gt;&lt;/tr&gt;&lt;tr style=&quot;border-color: var(--border-color);&quot;&gt;&lt;td style=&quot;border-color: var(--border-color);&quot;&gt;&lt;br style=&quot;border-color: var(--border-color);&quot;&gt;&lt;/td&gt;&lt;/tr&gt;&lt;/tbody&gt;&lt;/table&gt;" style="text;strokeColor=none;fillColor=none;align=left;verticalAlign=top;spacingLeft=4;spacingRight=4;overflow=hidden;rotatable=0;points=[[0,0.5],[1,0.5]];portConstraint=eastwest;whiteSpace=wrap;html=1;fontSize=16;" parent="VqmjkEThSfLMJ_1UgzTR-62" vertex="1">
          <mxGeometry y="96" width="200" height="34" as="geometry" />
        </mxCell>
        <mxCell id="VqmjkEThSfLMJ_1UgzTR-66" value="&lt;table style=&quot;border-color: var(--border-color); font-family: Verdana; width: 180px; font-size: 14px;&quot; cellpadding=&quot;2&quot; cellspacing=&quot;0&quot;&gt;&lt;tbody style=&quot;border-color: var(--border-color);&quot;&gt;&lt;tr style=&quot;border-color: var(--border-color);&quot;&gt;&lt;td style=&quot;border-color: var(--border-color);&quot;&gt;&lt;/td&gt;&lt;/tr&gt;&lt;tr style=&quot;border-color: var(--border-color);&quot;&gt;&lt;td style=&quot;border-color: var(--border-color);&quot;&gt;&lt;font style=&quot;font-size: 14px;&quot;&gt;-descriotion:String&lt;/font&gt;&lt;/td&gt;&lt;/tr&gt;&lt;tr style=&quot;border-color: var(--border-color);&quot;&gt;&lt;td style=&quot;border-color: var(--border-color);&quot;&gt;&lt;font style=&quot;font-size: 14px;&quot;&gt;&lt;br style=&quot;border-color: var(--border-color);&quot;&gt;&lt;/font&gt;&lt;/td&gt;&lt;/tr&gt;&lt;/tbody&gt;&lt;/table&gt;" style="text;strokeColor=none;fillColor=none;align=left;verticalAlign=top;spacingLeft=4;spacingRight=4;overflow=hidden;rotatable=0;points=[[0,0.5],[1,0.5]];portConstraint=eastwest;whiteSpace=wrap;html=1;fontSize=16;" parent="VqmjkEThSfLMJ_1UgzTR-62" vertex="1">
          <mxGeometry y="130" width="200" height="30" as="geometry" />
        </mxCell>
        <mxCell id="VqmjkEThSfLMJ_1UgzTR-70" value="&lt;table style=&quot;border-color: var(--border-color); font-family: Verdana; font-size: 14px; width: 180px;&quot; cellpadding=&quot;2&quot; cellspacing=&quot;0&quot;&gt;&lt;tbody style=&quot;border-color: var(--border-color);&quot;&gt;&lt;tr style=&quot;border-color: var(--border-color);&quot;&gt;&lt;td style=&quot;border-color: var(--border-color);&quot;&gt;&lt;/td&gt;&lt;/tr&gt;&lt;tr style=&quot;border-color: var(--border-color);&quot;&gt;&lt;td style=&quot;border-color: var(--border-color);&quot;&gt;-ACD:LocalDT&lt;/td&gt;&lt;/tr&gt;&lt;tr style=&quot;border-color: var(--border-color);&quot;&gt;&lt;td style=&quot;border-color: var(--border-color);&quot;&gt;&lt;br style=&quot;border-color: var(--border-color);&quot;&gt;&lt;/td&gt;&lt;/tr&gt;&lt;/tbody&gt;&lt;/table&gt;" style="text;strokeColor=none;fillColor=none;align=left;verticalAlign=top;spacingLeft=4;spacingRight=4;overflow=hidden;rotatable=0;points=[[0,0.5],[1,0.5]];portConstraint=eastwest;whiteSpace=wrap;html=1;fontSize=16;" parent="VqmjkEThSfLMJ_1UgzTR-62" vertex="1">
          <mxGeometry y="160" width="200" height="40" as="geometry" />
        </mxCell>
        <mxCell id="VqmjkEThSfLMJ_1UgzTR-67" value="" style="line;strokeWidth=1;fillColor=none;align=left;verticalAlign=middle;spacingTop=-1;spacingLeft=3;spacingRight=3;rotatable=0;labelPosition=right;points=[];portConstraint=eastwest;strokeColor=inherit;fontSize=16;" parent="VqmjkEThSfLMJ_1UgzTR-62" vertex="1">
          <mxGeometry y="200" width="200" height="8" as="geometry" />
        </mxCell>
        <mxCell id="VqmjkEThSfLMJ_1UgzTR-68" value="+CRED:Void" style="text;strokeColor=none;fillColor=none;align=left;verticalAlign=top;spacingLeft=4;spacingRight=4;overflow=hidden;rotatable=0;points=[[0,0.5],[1,0.5]];portConstraint=eastwest;whiteSpace=wrap;html=1;fontSize=16;" parent="VqmjkEThSfLMJ_1UgzTR-62" vertex="1">
          <mxGeometry y="208" width="200" height="26" as="geometry" />
        </mxCell>
        <mxCell id="VqmjkEThSfLMJ_1UgzTR-74" value="+findUserById&lt;span style=&quot;background-color: initial;&quot;&gt;:Profile&lt;/span&gt;" style="text;strokeColor=none;fillColor=none;align=left;verticalAlign=top;spacingLeft=4;spacingRight=4;overflow=hidden;rotatable=0;points=[[0,0.5],[1,0.5]];portConstraint=eastwest;whiteSpace=wrap;html=1;fontSize=16;" parent="VqmjkEThSfLMJ_1UgzTR-62" vertex="1">
          <mxGeometry y="234" width="200" height="36" as="geometry" />
        </mxCell>
        <mxCell id="VqmjkEThSfLMJ_1UgzTR-76" value="Customer" style="swimlane;fontStyle=1;align=center;verticalAlign=top;childLayout=stackLayout;horizontal=1;startSize=26;horizontalStack=0;resizeParent=1;resizeParentMax=0;resizeLast=0;collapsible=1;marginBottom=0;whiteSpace=wrap;html=1;fontSize=16;" parent="1" vertex="1">
          <mxGeometry x="1060" y="10" width="360" height="424" as="geometry">
            <mxRectangle x="1030" y="130" width="90" height="30" as="alternateBounds" />
          </mxGeometry>
        </mxCell>
        <mxCell id="VqmjkEThSfLMJ_1UgzTR-77" value="-&amp;nbsp; Id:int" style="text;strokeColor=none;fillColor=none;align=left;verticalAlign=top;spacingLeft=4;spacingRight=4;overflow=hidden;rotatable=0;points=[[0,0.5],[1,0.5]];portConstraint=eastwest;whiteSpace=wrap;html=1;fontSize=16;" parent="VqmjkEThSfLMJ_1UgzTR-76" vertex="1">
          <mxGeometry y="26" width="360" height="34" as="geometry" />
        </mxCell>
        <mxCell id="VqmjkEThSfLMJ_1UgzTR-78" value="&lt;table style=&quot;border-color: var(--border-color); font-family: Verdana; font-size: 14px; width: 180px;&quot; cellpadding=&quot;2&quot; cellspacing=&quot;0&quot;&gt;&lt;tbody style=&quot;border-color: var(--border-color);&quot;&gt;&lt;tr style=&quot;border-color: var(--border-color);&quot;&gt;&lt;td style=&quot;border-color: var(--border-color);&quot;&gt;&lt;font style=&quot;font-size: 14px;&quot;&gt;User:user&lt;/font&gt;&lt;/td&gt;&lt;/tr&gt;&lt;tr style=&quot;border-color: var(--border-color);&quot;&gt;&lt;/tr&gt;&lt;/tbody&gt;&lt;/table&gt;" style="text;strokeColor=none;fillColor=none;align=left;verticalAlign=top;spacingLeft=4;spacingRight=4;overflow=hidden;rotatable=0;points=[[0,0.5],[1,0.5]];portConstraint=eastwest;whiteSpace=wrap;html=1;fontSize=16;" parent="VqmjkEThSfLMJ_1UgzTR-76" vertex="1">
          <mxGeometry y="60" width="360" height="40" as="geometry" />
        </mxCell>
        <mxCell id="VqmjkEThSfLMJ_1UgzTR-79" value="&lt;table style=&quot;border-color: var(--border-color); font-family: Verdana; font-size: 1em; width: 180px;&quot; cellpadding=&quot;2&quot; cellspacing=&quot;0&quot;&gt;&lt;tbody style=&quot;border-color: var(--border-color);&quot;&gt;&lt;tr style=&quot;border-color: var(--border-color);&quot;&gt;&lt;td style=&quot;border-color: var(--border-color);&quot;&gt;&lt;font style=&quot;font-size: 14px;&quot;&gt;-Order:order&lt;/font&gt;&lt;br style=&quot;border-color: var(--border-color);&quot;&gt;&lt;/td&gt;&lt;/tr&gt;&lt;/tbody&gt;&lt;/table&gt;" style="text;strokeColor=none;fillColor=none;align=left;verticalAlign=top;spacingLeft=4;spacingRight=4;overflow=hidden;rotatable=0;points=[[0,0.5],[1,0.5]];portConstraint=eastwest;whiteSpace=wrap;html=1;fontSize=16;" parent="VqmjkEThSfLMJ_1UgzTR-76" vertex="1">
          <mxGeometry y="100" width="360" height="34" as="geometry" />
        </mxCell>
        <mxCell id="VqmjkEThSfLMJ_1UgzTR-80" value="- Profile:profile" style="text;strokeColor=none;fillColor=none;align=left;verticalAlign=top;spacingLeft=4;spacingRight=4;overflow=hidden;rotatable=0;points=[[0,0.5],[1,0.5]];portConstraint=eastwest;whiteSpace=wrap;html=1;fontSize=16;" parent="VqmjkEThSfLMJ_1UgzTR-76" vertex="1">
          <mxGeometry y="134" width="360" height="30" as="geometry" />
        </mxCell>
        <mxCell id="VqmjkEThSfLMJ_1UgzTR-81" value="&lt;table style=&quot;border-color: var(--border-color); font-family: Verdana; font-size: 14px; width: 180px;&quot; cellpadding=&quot;2&quot; cellspacing=&quot;0&quot;&gt;&lt;tbody style=&quot;border-color: var(--border-color);&quot;&gt;&lt;tr style=&quot;border-color: var(--border-color);&quot;&gt;&lt;td style=&quot;border-color: var(--border-color);&quot;&gt;&lt;/td&gt;&lt;/tr&gt;&lt;tr style=&quot;border-color: var(--border-color);&quot;&gt;&lt;td style=&quot;border-color: var(--border-color);&quot;&gt;-Ticket:ticket&lt;/td&gt;&lt;/tr&gt;&lt;/tbody&gt;&lt;/table&gt;" style="text;strokeColor=none;fillColor=none;align=left;verticalAlign=top;spacingLeft=4;spacingRight=4;overflow=hidden;rotatable=0;points=[[0,0.5],[1,0.5]];portConstraint=eastwest;whiteSpace=wrap;html=1;fontSize=16;" parent="VqmjkEThSfLMJ_1UgzTR-76" vertex="1">
          <mxGeometry y="164" width="360" height="40" as="geometry" />
        </mxCell>
        <mxCell id="VqmjkEThSfLMJ_1UgzTR-85" value="&lt;table style=&quot;border-color: var(--border-color); font-family: Verdana; font-size: 14px; width: 180px;&quot; cellpadding=&quot;2&quot; cellspacing=&quot;0&quot;&gt;&lt;tbody style=&quot;border-color: var(--border-color);&quot;&gt;&lt;tr style=&quot;border-color: var(--border-color);&quot;&gt;&lt;td style=&quot;border-color: var(--border-color);&quot;&gt;&lt;/td&gt;&lt;/tr&gt;&lt;tr style=&quot;border-color: var(--border-color);&quot;&gt;&lt;td style=&quot;border-color: var(--border-color);&quot;&gt;-Evaluation:evaluation&lt;/td&gt;&lt;/tr&gt;&lt;/tbody&gt;&lt;/table&gt;" style="text;strokeColor=none;fillColor=none;align=left;verticalAlign=top;spacingLeft=4;spacingRight=4;overflow=hidden;rotatable=0;points=[[0,0.5],[1,0.5]];portConstraint=eastwest;whiteSpace=wrap;html=1;fontSize=16;" parent="VqmjkEThSfLMJ_1UgzTR-76" vertex="1">
          <mxGeometry y="204" width="360" height="40" as="geometry" />
        </mxCell>
        <mxCell id="VqmjkEThSfLMJ_1UgzTR-82" value="" style="line;strokeWidth=1;fillColor=none;align=left;verticalAlign=middle;spacingTop=-1;spacingLeft=3;spacingRight=3;rotatable=0;labelPosition=right;points=[];portConstraint=eastwest;strokeColor=inherit;fontSize=16;" parent="VqmjkEThSfLMJ_1UgzTR-76" vertex="1">
          <mxGeometry y="244" width="360" height="8" as="geometry" />
        </mxCell>
        <mxCell id="VqmjkEThSfLMJ_1UgzTR-83" value="+CRED:Void" style="text;strokeColor=none;fillColor=none;align=left;verticalAlign=top;spacingLeft=4;spacingRight=4;overflow=hidden;rotatable=0;points=[[0,0.5],[1,0.5]];portConstraint=eastwest;whiteSpace=wrap;html=1;fontSize=16;" parent="VqmjkEThSfLMJ_1UgzTR-76" vertex="1">
          <mxGeometry y="252" width="360" height="26" as="geometry" />
        </mxCell>
        <mxCell id="VqmjkEThSfLMJ_1UgzTR-84" value="+checkIfFoodTruckAvailable:List&amp;lt;FoodTruck&amp;gt;" style="text;strokeColor=none;fillColor=none;align=left;verticalAlign=top;spacingLeft=4;spacingRight=4;overflow=hidden;rotatable=0;points=[[0,0.5],[1,0.5]];portConstraint=eastwest;whiteSpace=wrap;html=1;fontSize=16;" parent="VqmjkEThSfLMJ_1UgzTR-76" vertex="1">
          <mxGeometry y="278" width="360" height="38" as="geometry" />
        </mxCell>
        <mxCell id="VqmjkEThSfLMJ_1UgzTR-86" value="+HighestRating:List&amp;lt;FoodTruck&amp;gt;" style="text;strokeColor=none;fillColor=none;align=left;verticalAlign=top;spacingLeft=4;spacingRight=4;overflow=hidden;rotatable=0;points=[[0,0.5],[1,0.5]];portConstraint=eastwest;whiteSpace=wrap;html=1;fontSize=16;" parent="VqmjkEThSfLMJ_1UgzTR-76" vertex="1">
          <mxGeometry y="316" width="360" height="36" as="geometry" />
        </mxCell>
        <mxCell id="VqmjkEThSfLMJ_1UgzTR-87" value="+currentStatus:String" style="text;strokeColor=none;fillColor=none;align=left;verticalAlign=top;spacingLeft=4;spacingRight=4;overflow=hidden;rotatable=0;points=[[0,0.5],[1,0.5]];portConstraint=eastwest;whiteSpace=wrap;html=1;fontSize=16;" parent="VqmjkEThSfLMJ_1UgzTR-76" vertex="1">
          <mxGeometry y="352" width="360" height="36" as="geometry" />
        </mxCell>
        <mxCell id="VqmjkEThSfLMJ_1UgzTR-88" value="+FoodTruckAcceptCheck:viod" style="text;strokeColor=none;fillColor=none;align=left;verticalAlign=top;spacingLeft=4;spacingRight=4;overflow=hidden;rotatable=0;points=[[0,0.5],[1,0.5]];portConstraint=eastwest;whiteSpace=wrap;html=1;fontSize=16;" parent="VqmjkEThSfLMJ_1UgzTR-76" vertex="1">
          <mxGeometry y="388" width="360" height="36" as="geometry" />
        </mxCell>
        <mxCell id="VqmjkEThSfLMJ_1UgzTR-91" value="Order" style="swimlane;fontStyle=1;align=center;verticalAlign=top;childLayout=stackLayout;horizontal=1;startSize=26;horizontalStack=0;resizeParent=1;resizeParentMax=0;resizeLast=0;collapsible=1;marginBottom=0;whiteSpace=wrap;html=1;fontSize=16;" parent="1" vertex="1">
          <mxGeometry x="600" y="60" width="360" height="706" as="geometry">
            <mxRectangle x="660" y="150" width="90" height="30" as="alternateBounds" />
          </mxGeometry>
        </mxCell>
        <mxCell id="VqmjkEThSfLMJ_1UgzTR-92" value="-&amp;nbsp; Id:int" style="text;strokeColor=none;fillColor=none;align=left;verticalAlign=top;spacingLeft=4;spacingRight=4;overflow=hidden;rotatable=0;points=[[0,0.5],[1,0.5]];portConstraint=eastwest;whiteSpace=wrap;html=1;fontSize=16;" parent="VqmjkEThSfLMJ_1UgzTR-91" vertex="1">
          <mxGeometry y="26" width="360" height="34" as="geometry" />
        </mxCell>
        <mxCell id="VqmjkEThSfLMJ_1UgzTR-93" value="&lt;table style=&quot;border-color: var(--border-color); font-family: Verdana; font-size: 14px; width: 180px;&quot; cellpadding=&quot;2&quot; cellspacing=&quot;0&quot;&gt;&lt;tbody style=&quot;border-color: var(--border-color);&quot;&gt;&lt;tr style=&quot;border-color: var(--border-color);&quot;&gt;&lt;td style=&quot;border-color: var(--border-color);&quot;&gt;&lt;table style=&quot;border-color: var(--border-color); font-size: 1em; width: 220px;&quot; cellpadding=&quot;2&quot; cellspacing=&quot;0&quot;&gt;&lt;tbody style=&quot;border-color: var(--border-color);&quot;&gt;&lt;tr style=&quot;border-color: var(--border-color);&quot;&gt;&lt;td style=&quot;border-color: var(--border-color);&quot;&gt;-date:LocalDate&lt;/td&gt;&lt;/tr&gt;&lt;tr style=&quot;border-color: var(--border-color);&quot;&gt;&lt;/tr&gt;&lt;/tbody&gt;&lt;/table&gt;&lt;br&gt;&lt;/td&gt;&lt;/tr&gt;&lt;tr style=&quot;border-color: var(--border-color);&quot;&gt;&lt;/tr&gt;&lt;/tbody&gt;&lt;/table&gt;" style="text;strokeColor=none;fillColor=none;align=left;verticalAlign=top;spacingLeft=4;spacingRight=4;overflow=hidden;rotatable=0;points=[[0,0.5],[1,0.5]];portConstraint=eastwest;whiteSpace=wrap;html=1;fontSize=16;" parent="VqmjkEThSfLMJ_1UgzTR-91" vertex="1">
          <mxGeometry y="60" width="360" height="40" as="geometry" />
        </mxCell>
        <mxCell id="VqmjkEThSfLMJ_1UgzTR-94" value="&lt;table style=&quot;border-color: var(--border-color); font-family: Verdana; font-size: 1em; width: 180px;&quot; cellpadding=&quot;2&quot; cellspacing=&quot;0&quot;&gt;&lt;tbody style=&quot;border-color: var(--border-color);&quot;&gt;&lt;tr style=&quot;border-color: var(--border-color);&quot;&gt;&lt;td style=&quot;border-color: var(--border-color);&quot;&gt;&lt;table style=&quot;border-color: var(--border-color); font-size: 1em; width: 220px;&quot; cellpadding=&quot;2&quot; cellspacing=&quot;0&quot;&gt;&lt;tbody style=&quot;border-color: var(--border-color);&quot;&gt;&lt;tr style=&quot;border-color: var(--border-color);&quot;&gt;&lt;td style=&quot;border-color: var(--border-color);&quot;&gt;&lt;/td&gt;&lt;/tr&gt;&lt;tr style=&quot;border-color: var(--border-color);&quot;&gt;&lt;td style=&quot;border-color: var(--border-color);&quot;&gt;-totalPrice:Double&lt;/td&gt;&lt;/tr&gt;&lt;tr style=&quot;border-color: var(--border-color);&quot;&gt;&lt;td style=&quot;border-color: var(--border-color);&quot;&gt;&lt;br style=&quot;border-color: var(--border-color);&quot;&gt;&lt;/td&gt;&lt;/tr&gt;&lt;/tbody&gt;&lt;/table&gt;&lt;/td&gt;&lt;/tr&gt;&lt;/tbody&gt;&lt;/table&gt;" style="text;strokeColor=none;fillColor=none;align=left;verticalAlign=top;spacingLeft=4;spacingRight=4;overflow=hidden;rotatable=0;points=[[0,0.5],[1,0.5]];portConstraint=eastwest;whiteSpace=wrap;html=1;fontSize=16;" parent="VqmjkEThSfLMJ_1UgzTR-91" vertex="1">
          <mxGeometry y="100" width="360" height="34" as="geometry" />
        </mxCell>
        <mxCell id="VqmjkEThSfLMJ_1UgzTR-115" value="&lt;font style=&quot;font-size: 14px;&quot;&gt;-orderStatus:String&lt;/font&gt;" style="text;strokeColor=none;fillColor=none;align=left;verticalAlign=top;spacingLeft=4;spacingRight=4;overflow=hidden;rotatable=0;points=[[0,0.5],[1,0.5]];portConstraint=eastwest;whiteSpace=wrap;html=1;fontSize=16;" parent="VqmjkEThSfLMJ_1UgzTR-91" vertex="1">
          <mxGeometry y="134" width="360" height="30" as="geometry" />
        </mxCell>
        <mxCell id="VqmjkEThSfLMJ_1UgzTR-114" value="&lt;font style=&quot;font-size: 14px;&quot;&gt;-note:String&lt;/font&gt;" style="text;strokeColor=none;fillColor=none;align=left;verticalAlign=top;spacingLeft=4;spacingRight=4;overflow=hidden;rotatable=0;points=[[0,0.5],[1,0.5]];portConstraint=eastwest;whiteSpace=wrap;html=1;fontSize=16;" parent="VqmjkEThSfLMJ_1UgzTR-91" vertex="1">
          <mxGeometry y="164" width="360" height="30" as="geometry" />
        </mxCell>
        <mxCell id="VqmjkEThSfLMJ_1UgzTR-95" value="&lt;table style=&quot;border-color: var(--border-color); font-family: Verdana; width: 220px; font-size: 15px;&quot; cellpadding=&quot;2&quot; cellspacing=&quot;0&quot;&gt;&lt;tbody style=&quot;border-color: var(--border-color);&quot;&gt;&lt;tr style=&quot;border-color: var(--border-color);&quot;&gt;&lt;td style=&quot;border-color: var(--border-color);&quot;&gt;&lt;font style=&quot;font-size: 15px;&quot;&gt;-discount:int&lt;/font&gt;&lt;/td&gt;&lt;/tr&gt;&lt;tr style=&quot;border-color: var(--border-color);&quot;&gt;&lt;/tr&gt;&lt;/tbody&gt;&lt;/table&gt;" style="text;strokeColor=none;fillColor=none;align=left;verticalAlign=top;spacingLeft=4;spacingRight=4;overflow=hidden;rotatable=0;points=[[0,0.5],[1,0.5]];portConstraint=eastwest;whiteSpace=wrap;html=1;fontSize=16;" parent="VqmjkEThSfLMJ_1UgzTR-91" vertex="1">
          <mxGeometry y="194" width="360" height="30" as="geometry" />
        </mxCell>
        <mxCell id="VqmjkEThSfLMJ_1UgzTR-116" value="&lt;table style=&quot;border-color: var(--border-color); font-family: Verdana; width: 220px; font-size: 14px;&quot; cellpadding=&quot;2&quot; cellspacing=&quot;0&quot;&gt;&lt;tbody style=&quot;border-color: var(--border-color);&quot;&gt;&lt;tr style=&quot;border-color: var(--border-color);&quot;&gt;&lt;td style=&quot;border-color: var(--border-color);&quot;&gt;&lt;font style=&quot;font-size: 14px;&quot;&gt;-Customer:customer&lt;br style=&quot;border-color: var(--border-color);&quot;&gt;&lt;/font&gt;&lt;/td&gt;&lt;/tr&gt;&lt;tr style=&quot;border-color: var(--border-color);&quot;&gt;&lt;/tr&gt;&lt;/tbody&gt;&lt;/table&gt;" style="text;strokeColor=none;fillColor=none;align=left;verticalAlign=top;spacingLeft=4;spacingRight=4;overflow=hidden;rotatable=0;points=[[0,0.5],[1,0.5]];portConstraint=eastwest;whiteSpace=wrap;html=1;fontSize=16;" parent="VqmjkEThSfLMJ_1UgzTR-91" vertex="1">
          <mxGeometry y="224" width="360" height="30" as="geometry" />
        </mxCell>
        <mxCell id="VqmjkEThSfLMJ_1UgzTR-117" value="&lt;table style=&quot;border-color: var(--border-color); font-family: Verdana; font-size: 1em; width: 220px;&quot; cellpadding=&quot;2&quot; cellspacing=&quot;0&quot;&gt;&lt;tbody style=&quot;border-color: var(--border-color);&quot;&gt;&lt;tr style=&quot;border-color: var(--border-color); font-size: 15px;&quot;&gt;&lt;td style=&quot;border-color: var(--border-color);&quot;&gt;&lt;table style=&quot;border-color: var(--border-color); font-size: 1em; width: 220px;&quot; cellpadding=&quot;2&quot; cellspacing=&quot;0&quot;&gt;&lt;tbody style=&quot;border-color: var(--border-color);&quot;&gt;&lt;tr style=&quot;border-color: var(--border-color);&quot;&gt;&lt;td style=&quot;border-color: var(--border-color);&quot;&gt;-FoodTruck:foodTruck&lt;br style=&quot;border-color: var(--border-color);&quot;&gt;&lt;/td&gt;&lt;/tr&gt;&lt;tr style=&quot;border-color: var(--border-color);&quot;&gt;&lt;/tr&gt;&lt;/tbody&gt;&lt;/table&gt;&lt;br&gt;&lt;/td&gt;&lt;/tr&gt;&lt;tr style=&quot;border-color: var(--border-color);&quot;&gt;&lt;/tr&gt;&lt;/tbody&gt;&lt;/table&gt;" style="text;strokeColor=none;fillColor=none;align=left;verticalAlign=top;spacingLeft=4;spacingRight=4;overflow=hidden;rotatable=0;points=[[0,0.5],[1,0.5]];portConstraint=eastwest;whiteSpace=wrap;html=1;fontSize=16;" parent="VqmjkEThSfLMJ_1UgzTR-91" vertex="1">
          <mxGeometry y="254" width="360" height="30" as="geometry" />
        </mxCell>
        <mxCell id="VqmjkEThSfLMJ_1UgzTR-118" value="&lt;table style=&quot;border-color: var(--border-color); font-family: Verdana; font-size: 1em; width: 220px;&quot; cellpadding=&quot;2&quot; cellspacing=&quot;0&quot;&gt;&lt;tbody style=&quot;border-color: var(--border-color);&quot;&gt;&lt;tr style=&quot;border-color: var(--border-color);&quot;&gt;&lt;td style=&quot;border-color: var(--border-color);&quot;&gt;-Address:address&lt;br style=&quot;border-color: var(--border-color);&quot;&gt;&lt;/td&gt;&lt;/tr&gt;&lt;tr style=&quot;border-color: var(--border-color);&quot;&gt;&lt;/tr&gt;&lt;/tbody&gt;&lt;/table&gt;" style="text;strokeColor=none;fillColor=none;align=left;verticalAlign=top;spacingLeft=4;spacingRight=4;overflow=hidden;rotatable=0;points=[[0,0.5],[1,0.5]];portConstraint=eastwest;whiteSpace=wrap;html=1;fontSize=16;" parent="VqmjkEThSfLMJ_1UgzTR-91" vertex="1">
          <mxGeometry y="284" width="360" height="30" as="geometry" />
        </mxCell>
        <mxCell id="VqmjkEThSfLMJ_1UgzTR-96" value="&lt;table style=&quot;border-color: var(--border-color); font-family: Verdana; font-size: 14px; width: 180px;&quot; cellpadding=&quot;2&quot; cellspacing=&quot;0&quot;&gt;&lt;tbody style=&quot;border-color: var(--border-color);&quot;&gt;&lt;tr style=&quot;border-color: var(--border-color);&quot;&gt;&lt;td style=&quot;border-color: var(--border-color);&quot;&gt;&lt;/td&gt;&lt;/tr&gt;&lt;tr style=&quot;border-color: var(--border-color);&quot;&gt;&lt;td style=&quot;border-color: var(--border-color);&quot;&gt;-Ticket:ticket&lt;/td&gt;&lt;/tr&gt;&lt;/tbody&gt;&lt;/table&gt;" style="text;strokeColor=none;fillColor=none;align=left;verticalAlign=top;spacingLeft=4;spacingRight=4;overflow=hidden;rotatable=0;points=[[0,0.5],[1,0.5]];portConstraint=eastwest;whiteSpace=wrap;html=1;fontSize=16;" parent="VqmjkEThSfLMJ_1UgzTR-91" vertex="1">
          <mxGeometry y="314" width="360" height="40" as="geometry" />
        </mxCell>
        <mxCell id="VqmjkEThSfLMJ_1UgzTR-97" value="&lt;table style=&quot;border-color: var(--border-color); font-family: Verdana; font-size: 14px; width: 180px;&quot; cellpadding=&quot;2&quot; cellspacing=&quot;0&quot;&gt;&lt;tbody style=&quot;border-color: var(--border-color);&quot;&gt;&lt;tr style=&quot;border-color: var(--border-color);&quot;&gt;&lt;td style=&quot;border-color: var(--border-color);&quot;&gt;&lt;/td&gt;&lt;/tr&gt;&lt;tr style=&quot;border-color: var(--border-color);&quot;&gt;&lt;td style=&quot;border-color: var(--border-color);&quot;&gt;-Evaluation:evaluation&lt;/td&gt;&lt;/tr&gt;&lt;/tbody&gt;&lt;/table&gt;" style="text;strokeColor=none;fillColor=none;align=left;verticalAlign=top;spacingLeft=4;spacingRight=4;overflow=hidden;rotatable=0;points=[[0,0.5],[1,0.5]];portConstraint=eastwest;whiteSpace=wrap;html=1;fontSize=16;" parent="VqmjkEThSfLMJ_1UgzTR-91" vertex="1">
          <mxGeometry y="354" width="360" height="40" as="geometry" />
        </mxCell>
        <mxCell id="VqmjkEThSfLMJ_1UgzTR-98" value="" style="line;strokeWidth=1;fillColor=none;align=left;verticalAlign=middle;spacingTop=-1;spacingLeft=3;spacingRight=3;rotatable=0;labelPosition=right;points=[];portConstraint=eastwest;strokeColor=inherit;fontSize=16;" parent="VqmjkEThSfLMJ_1UgzTR-91" vertex="1">
          <mxGeometry y="394" width="360" height="8" as="geometry" />
        </mxCell>
        <mxCell id="VqmjkEThSfLMJ_1UgzTR-99" value="+CRED:Void" style="text;strokeColor=none;fillColor=none;align=left;verticalAlign=top;spacingLeft=4;spacingRight=4;overflow=hidden;rotatable=0;points=[[0,0.5],[1,0.5]];portConstraint=eastwest;whiteSpace=wrap;html=1;fontSize=16;" parent="VqmjkEThSfLMJ_1UgzTR-91" vertex="1">
          <mxGeometry y="402" width="360" height="26" as="geometry" />
        </mxCell>
        <mxCell id="VqmjkEThSfLMJ_1UgzTR-100" value="+findOrderById:List&amp;lt;Orders&lt;span style=&quot;background-color: initial;&quot;&gt;&amp;gt;&lt;/span&gt;" style="text;strokeColor=none;fillColor=none;align=left;verticalAlign=top;spacingLeft=4;spacingRight=4;overflow=hidden;rotatable=0;points=[[0,0.5],[1,0.5]];portConstraint=eastwest;whiteSpace=wrap;html=1;fontSize=16;" parent="VqmjkEThSfLMJ_1UgzTR-91" vertex="1">
          <mxGeometry y="428" width="360" height="34" as="geometry" />
        </mxCell>
        <mxCell id="VqmjkEThSfLMJ_1UgzTR-119" value="+findFoodTruckById&lt;span style=&quot;background-color: initial;&quot;&gt;:List&amp;lt;Orders&lt;/span&gt;&lt;span style=&quot;background-color: initial;&quot;&gt;&amp;gt;&lt;/span&gt;" style="text;strokeColor=none;fillColor=none;align=left;verticalAlign=top;spacingLeft=4;spacingRight=4;overflow=hidden;rotatable=0;points=[[0,0.5],[1,0.5]];portConstraint=eastwest;whiteSpace=wrap;html=1;fontSize=16;" parent="VqmjkEThSfLMJ_1UgzTR-91" vertex="1">
          <mxGeometry y="462" width="360" height="34" as="geometry" />
        </mxCell>
        <mxCell id="VqmjkEThSfLMJ_1UgzTR-120" value="+findOrdersByTotalPrice&lt;span style=&quot;background-color: initial;&quot;&gt;:List&amp;lt;Orders&lt;/span&gt;&lt;span style=&quot;background-color: initial;&quot;&gt;&amp;gt;&lt;/span&gt;" style="text;strokeColor=none;fillColor=none;align=left;verticalAlign=top;spacingLeft=4;spacingRight=4;overflow=hidden;rotatable=0;points=[[0,0.5],[1,0.5]];portConstraint=eastwest;whiteSpace=wrap;html=1;fontSize=16;" parent="VqmjkEThSfLMJ_1UgzTR-91" vertex="1">
          <mxGeometry y="496" width="360" height="34" as="geometry" />
        </mxCell>
        <mxCell id="VqmjkEThSfLMJ_1UgzTR-121" value="+findOrdersByDate&lt;span style=&quot;background-color: initial;&quot;&gt;:List&amp;lt;Orders&lt;/span&gt;&lt;span style=&quot;background-color: initial;&quot;&gt;&amp;gt;&lt;/span&gt;" style="text;strokeColor=none;fillColor=none;align=left;verticalAlign=top;spacingLeft=4;spacingRight=4;overflow=hidden;rotatable=0;points=[[0,0.5],[1,0.5]];portConstraint=eastwest;whiteSpace=wrap;html=1;fontSize=16;" parent="VqmjkEThSfLMJ_1UgzTR-91" vertex="1">
          <mxGeometry y="530" width="360" height="34" as="geometry" />
        </mxCell>
        <mxCell id="VqmjkEThSfLMJ_1UgzTR-122" value="+findOrdersByDateAfter&lt;span style=&quot;background-color: initial;&quot;&gt;:List&amp;lt;Orders&lt;/span&gt;&lt;span style=&quot;background-color: initial;&quot;&gt;&amp;gt;&lt;/span&gt;" style="text;strokeColor=none;fillColor=none;align=left;verticalAlign=top;spacingLeft=4;spacingRight=4;overflow=hidden;rotatable=0;points=[[0,0.5],[1,0.5]];portConstraint=eastwest;whiteSpace=wrap;html=1;fontSize=16;" parent="VqmjkEThSfLMJ_1UgzTR-91" vertex="1">
          <mxGeometry y="564" width="360" height="34" as="geometry" />
        </mxCell>
        <mxCell id="VqmjkEThSfLMJ_1UgzTR-101" value="+findOrdersByDateEqual:Order" style="text;strokeColor=none;fillColor=none;align=left;verticalAlign=top;spacingLeft=4;spacingRight=4;overflow=hidden;rotatable=0;points=[[0,0.5],[1,0.5]];portConstraint=eastwest;whiteSpace=wrap;html=1;fontSize=16;" parent="VqmjkEThSfLMJ_1UgzTR-91" vertex="1">
          <mxGeometry y="598" width="360" height="36" as="geometry" />
        </mxCell>
        <mxCell id="VqmjkEThSfLMJ_1UgzTR-102" value="+currentStatus:String" style="text;strokeColor=none;fillColor=none;align=left;verticalAlign=top;spacingLeft=4;spacingRight=4;overflow=hidden;rotatable=0;points=[[0,0.5],[1,0.5]];portConstraint=eastwest;whiteSpace=wrap;html=1;fontSize=16;" parent="VqmjkEThSfLMJ_1UgzTR-91" vertex="1">
          <mxGeometry y="634" width="360" height="36" as="geometry" />
        </mxCell>
        <mxCell id="VqmjkEThSfLMJ_1UgzTR-103" value="+FoodTruckAcceptCheck:viod" style="text;strokeColor=none;fillColor=none;align=left;verticalAlign=top;spacingLeft=4;spacingRight=4;overflow=hidden;rotatable=0;points=[[0,0.5],[1,0.5]];portConstraint=eastwest;whiteSpace=wrap;html=1;fontSize=16;" parent="VqmjkEThSfLMJ_1UgzTR-91" vertex="1">
          <mxGeometry y="670" width="360" height="36" as="geometry" />
        </mxCell>
        <mxCell id="VqmjkEThSfLMJ_1UgzTR-104" value="User" style="swimlane;fontStyle=1;align=center;verticalAlign=top;childLayout=stackLayout;horizontal=1;startSize=26;horizontalStack=0;resizeParent=1;resizeParentMax=0;resizeLast=0;collapsible=1;marginBottom=0;whiteSpace=wrap;html=1;fontSize=16;" parent="1" vertex="1">
          <mxGeometry x="308" y="-14" width="200" height="254" as="geometry">
            <mxRectangle x="550" y="10" width="90" height="30" as="alternateBounds" />
          </mxGeometry>
        </mxCell>
        <mxCell id="VqmjkEThSfLMJ_1UgzTR-105" value="-&amp;nbsp; Id:int" style="text;strokeColor=none;fillColor=none;align=left;verticalAlign=top;spacingLeft=4;spacingRight=4;overflow=hidden;rotatable=0;points=[[0,0.5],[1,0.5]];portConstraint=eastwest;whiteSpace=wrap;html=1;fontSize=16;" parent="VqmjkEThSfLMJ_1UgzTR-104" vertex="1">
          <mxGeometry y="26" width="200" height="30" as="geometry" />
        </mxCell>
        <mxCell id="VqmjkEThSfLMJ_1UgzTR-106" value="&lt;table style=&quot;border-color: var(--border-color); font-family: Verdana; font-size: 14px; width: 180px;&quot; cellpadding=&quot;2&quot; cellspacing=&quot;0&quot;&gt;&lt;tbody style=&quot;border-color: var(--border-color);&quot;&gt;&lt;tr style=&quot;border-color: var(--border-color);&quot;&gt;&lt;td style=&quot;border-color: var(--border-color);&quot;&gt;&lt;font style=&quot;font-size: 14px;&quot;&gt;-Customer:customer&lt;/font&gt;&lt;/td&gt;&lt;/tr&gt;&lt;tr style=&quot;border-color: var(--border-color);&quot;&gt;&lt;/tr&gt;&lt;/tbody&gt;&lt;/table&gt;" style="text;strokeColor=none;fillColor=none;align=left;verticalAlign=top;spacingLeft=4;spacingRight=4;overflow=hidden;rotatable=0;points=[[0,0.5],[1,0.5]];portConstraint=eastwest;whiteSpace=wrap;html=1;fontSize=16;" parent="VqmjkEThSfLMJ_1UgzTR-104" vertex="1">
          <mxGeometry y="56" width="200" height="40" as="geometry" />
        </mxCell>
        <mxCell id="VqmjkEThSfLMJ_1UgzTR-107" value="&lt;table style=&quot;border-color: var(--border-color); font-family: Verdana; font-size: 14px; width: 180px;&quot; cellpadding=&quot;2&quot; cellspacing=&quot;0&quot;&gt;&lt;tbody style=&quot;border-color: var(--border-color);&quot;&gt;&lt;tr style=&quot;border-color: var(--border-color);&quot;&gt;&lt;td style=&quot;border-color: var(--border-color);&quot;&gt;&lt;/td&gt;&lt;/tr&gt;&lt;tr style=&quot;border-color: var(--border-color);&quot;&gt;&lt;td style=&quot;border-color: var(--border-color);&quot;&gt;&lt;table style=&quot;border-color: var(--border-color); font-size: 1em; width: 170px;&quot; cellpadding=&quot;2&quot; cellspacing=&quot;0&quot;&gt;&lt;tbody style=&quot;border-color: var(--border-color);&quot;&gt;&lt;tr style=&quot;border-color: var(--border-color);&quot;&gt;&lt;td style=&quot;border-color: var(--border-color);&quot;&gt;&lt;/td&gt;&lt;/tr&gt;&lt;tr style=&quot;border-color: var(--border-color);&quot;&gt;&lt;td style=&quot;border-color: var(--border-color);&quot;&gt;-Passwored:String&lt;/td&gt;&lt;/tr&gt;&lt;tr style=&quot;border-color: var(--border-color);&quot;&gt;&lt;td style=&quot;border-color: var(--border-color);&quot;&gt;&lt;br style=&quot;border-color: var(--border-color);&quot;&gt;&lt;/td&gt;&lt;/tr&gt;&lt;/tbody&gt;&lt;/table&gt;&lt;/td&gt;&lt;/tr&gt;&lt;/tbody&gt;&lt;/table&gt;" style="text;strokeColor=none;fillColor=none;align=left;verticalAlign=top;spacingLeft=4;spacingRight=4;overflow=hidden;rotatable=0;points=[[0,0.5],[1,0.5]];portConstraint=eastwest;whiteSpace=wrap;html=1;fontSize=16;" parent="VqmjkEThSfLMJ_1UgzTR-104" vertex="1">
          <mxGeometry y="96" width="200" height="40" as="geometry" />
        </mxCell>
        <mxCell id="VqmjkEThSfLMJ_1UgzTR-108" value="&lt;table style=&quot;border-color: var(--border-color); font-family: Verdana; width: 180px; font-size: 14px;&quot; cellpadding=&quot;2&quot; cellspacing=&quot;0&quot;&gt;&lt;tbody style=&quot;border-color: var(--border-color);&quot;&gt;&lt;tr style=&quot;border-color: var(--border-color);&quot;&gt;&lt;td style=&quot;border-color: var(--border-color);&quot;&gt;&lt;/td&gt;&lt;/tr&gt;&lt;tr style=&quot;border-color: var(--border-color);&quot;&gt;&lt;td style=&quot;border-color: var(--border-color);&quot;&gt;-Email:String&lt;br style=&quot;border-color: var(--border-color); font-size: 12px;&quot;&gt;&lt;/td&gt;&lt;/tr&gt;&lt;/tbody&gt;&lt;/table&gt;" style="text;strokeColor=none;fillColor=none;align=left;verticalAlign=top;spacingLeft=4;spacingRight=4;overflow=hidden;rotatable=0;points=[[0,0.5],[1,0.5]];portConstraint=eastwest;whiteSpace=wrap;html=1;fontSize=16;" parent="VqmjkEThSfLMJ_1UgzTR-104" vertex="1">
          <mxGeometry y="136" width="200" height="30" as="geometry" />
        </mxCell>
        <mxCell id="VqmjkEThSfLMJ_1UgzTR-109" value="&lt;font style=&quot;font-size: 14px;&quot;&gt;-phone:String&lt;/font&gt;" style="text;strokeColor=none;fillColor=none;align=left;verticalAlign=top;spacingLeft=4;spacingRight=4;overflow=hidden;rotatable=0;points=[[0,0.5],[1,0.5]];portConstraint=eastwest;whiteSpace=wrap;html=1;fontSize=16;" parent="VqmjkEThSfLMJ_1UgzTR-104" vertex="1">
          <mxGeometry y="166" width="200" height="40" as="geometry" />
        </mxCell>
        <mxCell id="VqmjkEThSfLMJ_1UgzTR-113" value="&lt;font style=&quot;font-size: 14px;&quot;&gt;-role:String&lt;/font&gt;" style="text;strokeColor=none;fillColor=none;align=left;verticalAlign=top;spacingLeft=4;spacingRight=4;overflow=hidden;rotatable=0;points=[[0,0.5],[1,0.5]];portConstraint=eastwest;whiteSpace=wrap;html=1;fontSize=16;" parent="VqmjkEThSfLMJ_1UgzTR-104" vertex="1">
          <mxGeometry y="206" width="200" height="40" as="geometry" />
        </mxCell>
        <mxCell id="VqmjkEThSfLMJ_1UgzTR-110" value="" style="line;strokeWidth=1;fillColor=none;align=left;verticalAlign=middle;spacingTop=-1;spacingLeft=3;spacingRight=3;rotatable=0;labelPosition=right;points=[];portConstraint=eastwest;strokeColor=inherit;fontSize=16;" parent="VqmjkEThSfLMJ_1UgzTR-104" vertex="1">
          <mxGeometry y="246" width="200" height="8" as="geometry" />
        </mxCell>
        <mxCell id="VqmjkEThSfLMJ_1UgzTR-124" value="1" style="edgeLabel;resizable=0;html=1;align=left;verticalAlign=bottom;rotation=90;" parent="1" connectable="0" vertex="1">
          <mxGeometry x="770.5000000000005" y="238" as="geometry" />
        </mxCell>
        <mxCell id="VqmjkEThSfLMJ_1UgzTR-125" value="Ticket&lt;br&gt;" style="swimlane;fontStyle=1;align=center;verticalAlign=top;childLayout=stackLayout;horizontal=1;startSize=30;horizontalStack=0;resizeParent=1;resizeParentMax=0;resizeLast=0;collapsible=1;marginBottom=0;whiteSpace=wrap;html=1;fontSize=16;" parent="1" vertex="1">
          <mxGeometry x="790" y="810" width="230" height="262" as="geometry">
            <mxRectangle x="710" y="591.25" width="90" height="30" as="alternateBounds" />
          </mxGeometry>
        </mxCell>
        <mxCell id="VqmjkEThSfLMJ_1UgzTR-126" value="-&amp;nbsp; Id:int" style="text;strokeColor=none;fillColor=none;align=left;verticalAlign=top;spacingLeft=4;spacingRight=4;overflow=hidden;rotatable=0;points=[[0,0.5],[1,0.5]];portConstraint=eastwest;whiteSpace=wrap;html=1;fontSize=16;" parent="VqmjkEThSfLMJ_1UgzTR-125" vertex="1">
          <mxGeometry y="30" width="230" height="34" as="geometry" />
        </mxCell>
        <mxCell id="VqmjkEThSfLMJ_1UgzTR-127" value="&lt;table style=&quot;border-color: var(--border-color); font-family: Verdana; width: 180px; font-size: 14px;&quot; cellpadding=&quot;2&quot; cellspacing=&quot;0&quot;&gt;&lt;tbody style=&quot;border-color: var(--border-color);&quot;&gt;&lt;tr style=&quot;border-color: var(--border-color);&quot;&gt;&lt;td style=&quot;border-color: var(--border-color);&quot;&gt;&lt;font style=&quot;font-size: 14px;&quot;&gt;-status:String&lt;br&gt;&lt;/font&gt;&lt;/td&gt;&lt;/tr&gt;&lt;tr style=&quot;border-color: var(--border-color);&quot;&gt;&lt;/tr&gt;&lt;/tbody&gt;&lt;/table&gt;" style="text;strokeColor=none;fillColor=none;align=left;verticalAlign=top;spacingLeft=4;spacingRight=4;overflow=hidden;rotatable=0;points=[[0,0.5],[1,0.5]];portConstraint=eastwest;whiteSpace=wrap;html=1;fontSize=16;" parent="VqmjkEThSfLMJ_1UgzTR-125" vertex="1">
          <mxGeometry y="64" width="230" height="40" as="geometry" />
        </mxCell>
        <mxCell id="VqmjkEThSfLMJ_1UgzTR-132" value="&lt;table style=&quot;border-color: var(--border-color); font-family: Verdana; width: 220px; font-size: 14px;&quot; cellpadding=&quot;2&quot; cellspacing=&quot;0&quot;&gt;&lt;tbody style=&quot;border-color: var(--border-color);&quot;&gt;&lt;tr style=&quot;border-color: var(--border-color);&quot;&gt;&lt;td style=&quot;border-color: var(--border-color);&quot;&gt;&lt;font style=&quot;font-size: 14px;&quot;&gt;-Customer:customer&lt;br style=&quot;border-color: var(--border-color);&quot;&gt;&lt;/font&gt;&lt;/td&gt;&lt;/tr&gt;&lt;tr style=&quot;border-color: var(--border-color);&quot;&gt;&lt;/tr&gt;&lt;/tbody&gt;&lt;/table&gt;" style="text;strokeColor=none;fillColor=none;align=left;verticalAlign=top;spacingLeft=4;spacingRight=4;overflow=hidden;rotatable=0;points=[[0,0.5],[1,0.5]];portConstraint=eastwest;whiteSpace=wrap;html=1;fontSize=16;" parent="VqmjkEThSfLMJ_1UgzTR-125" vertex="1">
          <mxGeometry y="104" width="230" height="30" as="geometry" />
        </mxCell>
        <mxCell id="VqmjkEThSfLMJ_1UgzTR-134" value="&lt;table style=&quot;border-color: var(--border-color); font-family: Verdana; font-size: 1em; width: 180px;&quot; cellpadding=&quot;2&quot; cellspacing=&quot;0&quot;&gt;&lt;tbody style=&quot;border-color: var(--border-color);&quot;&gt;&lt;tr style=&quot;border-color: var(--border-color);&quot;&gt;&lt;td style=&quot;border-color: var(--border-color);&quot;&gt;-Order:order&lt;/td&gt;&lt;/tr&gt;&lt;tr style=&quot;border-color: var(--border-color);&quot;&gt;&lt;/tr&gt;&lt;/tbody&gt;&lt;/table&gt;" style="text;strokeColor=none;fillColor=none;align=left;verticalAlign=top;spacingLeft=4;spacingRight=4;overflow=hidden;rotatable=0;points=[[0,0.5],[1,0.5]];portConstraint=eastwest;whiteSpace=wrap;html=1;fontSize=16;" parent="VqmjkEThSfLMJ_1UgzTR-125" vertex="1">
          <mxGeometry y="134" width="230" height="30" as="geometry" />
        </mxCell>
        <mxCell id="VqmjkEThSfLMJ_1UgzTR-133" value="&lt;table style=&quot;border-color: var(--border-color); font-family: Verdana; font-size: 1em; width: 220px;&quot; cellpadding=&quot;2&quot; cellspacing=&quot;0&quot;&gt;&lt;tbody style=&quot;border-color: var(--border-color);&quot;&gt;&lt;tr style=&quot;border-color: var(--border-color); font-size: 15px;&quot;&gt;&lt;td style=&quot;border-color: var(--border-color);&quot;&gt;&lt;table style=&quot;border-color: var(--border-color); font-size: 1em; width: 220px;&quot; cellpadding=&quot;2&quot; cellspacing=&quot;0&quot;&gt;&lt;tbody style=&quot;border-color: var(--border-color);&quot;&gt;&lt;tr style=&quot;border-color: var(--border-color);&quot;&gt;&lt;td style=&quot;border-color: var(--border-color);&quot;&gt;-FoodTruck:foodTruck&lt;br style=&quot;border-color: var(--border-color);&quot;&gt;&lt;/td&gt;&lt;/tr&gt;&lt;tr style=&quot;border-color: var(--border-color);&quot;&gt;&lt;/tr&gt;&lt;/tbody&gt;&lt;/table&gt;&lt;br&gt;&lt;/td&gt;&lt;/tr&gt;&lt;tr style=&quot;border-color: var(--border-color);&quot;&gt;&lt;/tr&gt;&lt;/tbody&gt;&lt;/table&gt;" style="text;strokeColor=none;fillColor=none;align=left;verticalAlign=top;spacingLeft=4;spacingRight=4;overflow=hidden;rotatable=0;points=[[0,0.5],[1,0.5]];portConstraint=eastwest;whiteSpace=wrap;html=1;fontSize=16;" parent="VqmjkEThSfLMJ_1UgzTR-125" vertex="1">
          <mxGeometry y="164" width="230" height="30" as="geometry" />
        </mxCell>
        <mxCell id="VqmjkEThSfLMJ_1UgzTR-137" value="" style="line;strokeWidth=1;fillColor=none;align=left;verticalAlign=middle;spacingTop=-1;spacingLeft=3;spacingRight=3;rotatable=0;labelPosition=right;points=[];portConstraint=eastwest;strokeColor=inherit;fontSize=16;" parent="VqmjkEThSfLMJ_1UgzTR-125" vertex="1">
          <mxGeometry y="194" width="230" height="8" as="geometry" />
        </mxCell>
        <mxCell id="VqmjkEThSfLMJ_1UgzTR-138" value="+CRED:Void" style="text;strokeColor=none;fillColor=none;align=left;verticalAlign=top;spacingLeft=4;spacingRight=4;overflow=hidden;rotatable=0;points=[[0,0.5],[1,0.5]];portConstraint=eastwest;whiteSpace=wrap;html=1;fontSize=16;" parent="VqmjkEThSfLMJ_1UgzTR-125" vertex="1">
          <mxGeometry y="202" width="230" height="26" as="geometry" />
        </mxCell>
        <mxCell id="VqmjkEThSfLMJ_1UgzTR-139" value="+findByUserId&lt;span style=&quot;background-color: initial;&quot;&gt;:List&amp;lt;&lt;/span&gt;Ticket&lt;span style=&quot;background-color: initial;&quot;&gt;&amp;gt;&lt;/span&gt;" style="text;strokeColor=none;fillColor=none;align=left;verticalAlign=top;spacingLeft=4;spacingRight=4;overflow=hidden;rotatable=0;points=[[0,0.5],[1,0.5]];portConstraint=eastwest;whiteSpace=wrap;html=1;fontSize=16;" parent="VqmjkEThSfLMJ_1UgzTR-125" vertex="1">
          <mxGeometry y="228" width="230" height="34" as="geometry" />
        </mxCell>
        <mxCell id="VqmjkEThSfLMJ_1UgzTR-147" value="Evaluation" style="swimlane;fontStyle=1;align=center;verticalAlign=top;childLayout=stackLayout;horizontal=1;startSize=30;horizontalStack=0;resizeParent=1;resizeParentMax=0;resizeLast=0;collapsible=1;marginBottom=0;whiteSpace=wrap;html=1;fontSize=16;" parent="1" vertex="1">
          <mxGeometry x="330" y="970" width="290" height="302" as="geometry">
            <mxRectangle x="340" y="680" width="90" height="30" as="alternateBounds" />
          </mxGeometry>
        </mxCell>
        <mxCell id="VqmjkEThSfLMJ_1UgzTR-148" value="-&amp;nbsp; Id:int" style="text;strokeColor=none;fillColor=none;align=left;verticalAlign=top;spacingLeft=4;spacingRight=4;overflow=hidden;rotatable=0;points=[[0,0.5],[1,0.5]];portConstraint=eastwest;whiteSpace=wrap;html=1;fontSize=16;" parent="VqmjkEThSfLMJ_1UgzTR-147" vertex="1">
          <mxGeometry y="30" width="290" height="34" as="geometry" />
        </mxCell>
        <mxCell id="VqmjkEThSfLMJ_1UgzTR-149" value="&lt;table style=&quot;border-color: var(--border-color); font-family: Verdana; width: 180px; font-size: 14px;&quot; cellpadding=&quot;2&quot; cellspacing=&quot;0&quot;&gt;&lt;tbody style=&quot;border-color: var(--border-color);&quot;&gt;&lt;tr style=&quot;border-color: var(--border-color);&quot;&gt;&lt;td style=&quot;border-color: var(--border-color);&quot;&gt;&lt;font style=&quot;font-size: 14px;&quot;&gt;-feedback:String&lt;/font&gt;&lt;/td&gt;&lt;/tr&gt;&lt;tr style=&quot;border-color: var(--border-color);&quot;&gt;&lt;/tr&gt;&lt;/tbody&gt;&lt;/table&gt;" style="text;strokeColor=none;fillColor=none;align=left;verticalAlign=top;spacingLeft=4;spacingRight=4;overflow=hidden;rotatable=0;points=[[0,0.5],[1,0.5]];portConstraint=eastwest;whiteSpace=wrap;html=1;fontSize=16;" parent="VqmjkEThSfLMJ_1UgzTR-147" vertex="1">
          <mxGeometry y="64" width="290" height="40" as="geometry" />
        </mxCell>
        <mxCell id="VqmjkEThSfLMJ_1UgzTR-156" value="&lt;table style=&quot;border-color: var(--border-color); font-family: Verdana; width: 180px; font-size: 14px;&quot; cellpadding=&quot;2&quot; cellspacing=&quot;0&quot;&gt;&lt;tbody style=&quot;border-color: var(--border-color);&quot;&gt;&lt;tr style=&quot;border-color: var(--border-color);&quot;&gt;&lt;td style=&quot;border-color: var(--border-color);&quot;&gt;&lt;font style=&quot;font-size: 14px;&quot;&gt;-rating:int&lt;br&gt;&lt;/font&gt;&lt;/td&gt;&lt;/tr&gt;&lt;tr style=&quot;border-color: var(--border-color);&quot;&gt;&lt;/tr&gt;&lt;/tbody&gt;&lt;/table&gt;" style="text;strokeColor=none;fillColor=none;align=left;verticalAlign=top;spacingLeft=4;spacingRight=4;overflow=hidden;rotatable=0;points=[[0,0.5],[1,0.5]];portConstraint=eastwest;whiteSpace=wrap;html=1;fontSize=16;" parent="VqmjkEThSfLMJ_1UgzTR-147" vertex="1">
          <mxGeometry y="104" width="290" height="40" as="geometry" />
        </mxCell>
        <mxCell id="VqmjkEThSfLMJ_1UgzTR-150" value="&lt;table style=&quot;border-color: var(--border-color); font-family: Verdana; width: 220px; font-size: 14px;&quot; cellpadding=&quot;2&quot; cellspacing=&quot;0&quot;&gt;&lt;tbody style=&quot;border-color: var(--border-color);&quot;&gt;&lt;tr style=&quot;border-color: var(--border-color);&quot;&gt;&lt;td style=&quot;border-color: var(--border-color);&quot;&gt;&lt;font style=&quot;font-size: 14px;&quot;&gt;-Customer:customer&lt;br style=&quot;border-color: var(--border-color);&quot;&gt;&lt;/font&gt;&lt;/td&gt;&lt;/tr&gt;&lt;tr style=&quot;border-color: var(--border-color);&quot;&gt;&lt;/tr&gt;&lt;/tbody&gt;&lt;/table&gt;" style="text;strokeColor=none;fillColor=none;align=left;verticalAlign=top;spacingLeft=4;spacingRight=4;overflow=hidden;rotatable=0;points=[[0,0.5],[1,0.5]];portConstraint=eastwest;whiteSpace=wrap;html=1;fontSize=16;" parent="VqmjkEThSfLMJ_1UgzTR-147" vertex="1">
          <mxGeometry y="144" width="290" height="30" as="geometry" />
        </mxCell>
        <mxCell id="VqmjkEThSfLMJ_1UgzTR-151" value="&lt;table style=&quot;border-color: var(--border-color); font-family: Verdana; font-size: 1em; width: 180px;&quot; cellpadding=&quot;2&quot; cellspacing=&quot;0&quot;&gt;&lt;tbody style=&quot;border-color: var(--border-color);&quot;&gt;&lt;tr style=&quot;border-color: var(--border-color);&quot;&gt;&lt;td style=&quot;border-color: var(--border-color);&quot;&gt;-Order:order&lt;/td&gt;&lt;/tr&gt;&lt;tr style=&quot;border-color: var(--border-color);&quot;&gt;&lt;/tr&gt;&lt;/tbody&gt;&lt;/table&gt;" style="text;strokeColor=none;fillColor=none;align=left;verticalAlign=top;spacingLeft=4;spacingRight=4;overflow=hidden;rotatable=0;points=[[0,0.5],[1,0.5]];portConstraint=eastwest;whiteSpace=wrap;html=1;fontSize=16;" parent="VqmjkEThSfLMJ_1UgzTR-147" vertex="1">
          <mxGeometry y="174" width="290" height="30" as="geometry" />
        </mxCell>
        <mxCell id="VqmjkEThSfLMJ_1UgzTR-152" value="&lt;table style=&quot;border-color: var(--border-color); font-family: Verdana; font-size: 1em; width: 220px;&quot; cellpadding=&quot;2&quot; cellspacing=&quot;0&quot;&gt;&lt;tbody style=&quot;border-color: var(--border-color);&quot;&gt;&lt;tr style=&quot;border-color: var(--border-color); font-size: 15px;&quot;&gt;&lt;td style=&quot;border-color: var(--border-color);&quot;&gt;&lt;table style=&quot;border-color: var(--border-color); font-size: 1em; width: 220px;&quot; cellpadding=&quot;2&quot; cellspacing=&quot;0&quot;&gt;&lt;tbody style=&quot;border-color: var(--border-color);&quot;&gt;&lt;tr style=&quot;border-color: var(--border-color);&quot;&gt;&lt;td style=&quot;border-color: var(--border-color);&quot;&gt;-FoodTruck:foodTruck&lt;br style=&quot;border-color: var(--border-color);&quot;&gt;&lt;/td&gt;&lt;/tr&gt;&lt;tr style=&quot;border-color: var(--border-color);&quot;&gt;&lt;/tr&gt;&lt;/tbody&gt;&lt;/table&gt;&lt;br&gt;&lt;/td&gt;&lt;/tr&gt;&lt;tr style=&quot;border-color: var(--border-color);&quot;&gt;&lt;/tr&gt;&lt;/tbody&gt;&lt;/table&gt;" style="text;strokeColor=none;fillColor=none;align=left;verticalAlign=top;spacingLeft=4;spacingRight=4;overflow=hidden;rotatable=0;points=[[0,0.5],[1,0.5]];portConstraint=eastwest;whiteSpace=wrap;html=1;fontSize=16;" parent="VqmjkEThSfLMJ_1UgzTR-147" vertex="1">
          <mxGeometry y="204" width="290" height="30" as="geometry" />
        </mxCell>
        <mxCell id="VqmjkEThSfLMJ_1UgzTR-153" value="" style="line;strokeWidth=1;fillColor=none;align=left;verticalAlign=middle;spacingTop=-1;spacingLeft=3;spacingRight=3;rotatable=0;labelPosition=right;points=[];portConstraint=eastwest;strokeColor=inherit;fontSize=16;" parent="VqmjkEThSfLMJ_1UgzTR-147" vertex="1">
          <mxGeometry y="234" width="290" height="8" as="geometry" />
        </mxCell>
        <mxCell id="VqmjkEThSfLMJ_1UgzTR-154" value="+CRED:Void" style="text;strokeColor=none;fillColor=none;align=left;verticalAlign=top;spacingLeft=4;spacingRight=4;overflow=hidden;rotatable=0;points=[[0,0.5],[1,0.5]];portConstraint=eastwest;whiteSpace=wrap;html=1;fontSize=16;" parent="VqmjkEThSfLMJ_1UgzTR-147" vertex="1">
          <mxGeometry y="242" width="290" height="26" as="geometry" />
        </mxCell>
        <mxCell id="VqmjkEThSfLMJ_1UgzTR-155" value="+findAllByFeedback:List&amp;lt;FoodTruck&lt;span style=&quot;background-color: initial;&quot;&gt;&amp;gt;&lt;/span&gt;" style="text;strokeColor=none;fillColor=none;align=left;verticalAlign=top;spacingLeft=4;spacingRight=4;overflow=hidden;rotatable=0;points=[[0,0.5],[1,0.5]];portConstraint=eastwest;whiteSpace=wrap;html=1;fontSize=16;" parent="VqmjkEThSfLMJ_1UgzTR-147" vertex="1">
          <mxGeometry y="268" width="290" height="34" as="geometry" />
        </mxCell>
        <mxCell id="VqmjkEThSfLMJ_1UgzTR-157" value="Food Truck&lt;br&gt;" style="swimlane;fontStyle=1;align=center;verticalAlign=top;childLayout=stackLayout;horizontal=1;startSize=26;horizontalStack=0;resizeParent=1;resizeParentMax=0;resizeLast=0;collapsible=1;marginBottom=0;whiteSpace=wrap;html=1;fontSize=16;" parent="1" vertex="1">
          <mxGeometry x="-140" y="330" width="360" height="880" as="geometry">
            <mxRectangle x="-140" y="330" width="90" height="30" as="alternateBounds" />
          </mxGeometry>
        </mxCell>
        <mxCell id="VqmjkEThSfLMJ_1UgzTR-158" value="-&amp;nbsp; Id:int" style="text;strokeColor=none;fillColor=none;align=left;verticalAlign=top;spacingLeft=4;spacingRight=4;overflow=hidden;rotatable=0;points=[[0,0.5],[1,0.5]];portConstraint=eastwest;whiteSpace=wrap;html=1;fontSize=16;" parent="VqmjkEThSfLMJ_1UgzTR-157" vertex="1">
          <mxGeometry y="26" width="360" height="34" as="geometry" />
        </mxCell>
        <mxCell id="VqmjkEThSfLMJ_1UgzTR-159" value="&lt;table style=&quot;border-color: var(--border-color); font-family: Verdana; font-size: 1em; width: 251px;&quot; cellpadding=&quot;2&quot; cellspacing=&quot;0&quot;&gt;&lt;tbody style=&quot;border-color: var(--border-color);&quot;&gt;&lt;tr style=&quot;border-color: var(--border-color);&quot;&gt;&lt;td style=&quot;border-color: var(--border-color);&quot;&gt;-license:String&lt;/td&gt;&lt;/tr&gt;&lt;tr style=&quot;border-color: var(--border-color);&quot;&gt;&lt;/tr&gt;&lt;/tbody&gt;&lt;/table&gt;" style="text;strokeColor=none;fillColor=none;align=left;verticalAlign=top;spacingLeft=4;spacingRight=4;overflow=hidden;rotatable=0;points=[[0,0.5],[1,0.5]];portConstraint=eastwest;whiteSpace=wrap;html=1;fontSize=16;" parent="VqmjkEThSfLMJ_1UgzTR-157" vertex="1">
          <mxGeometry y="60" width="360" height="40" as="geometry" />
        </mxCell>
        <mxCell id="dwipJbro_CzZKavcGM6B-14" value="-cstartDate:String" style="text;strokeColor=none;fillColor=none;align=left;verticalAlign=top;spacingLeft=4;spacingRight=4;overflow=hidden;rotatable=0;points=[[0,0.5],[1,0.5]];portConstraint=eastwest;whiteSpace=wrap;html=1;fontSize=16;" vertex="1" parent="VqmjkEThSfLMJ_1UgzTR-157">
          <mxGeometry y="100" width="360" height="30" as="geometry" />
        </mxCell>
        <mxCell id="VqmjkEThSfLMJ_1UgzTR-160" value="-name:String" style="text;strokeColor=none;fillColor=none;align=left;verticalAlign=top;spacingLeft=4;spacingRight=4;overflow=hidden;rotatable=0;points=[[0,0.5],[1,0.5]];portConstraint=eastwest;whiteSpace=wrap;html=1;fontSize=16;" parent="VqmjkEThSfLMJ_1UgzTR-157" vertex="1">
          <mxGeometry y="130" width="360" height="34" as="geometry" />
        </mxCell>
        <mxCell id="VqmjkEThSfLMJ_1UgzTR-161" value="&lt;table style=&quot;border-color: var(--border-color); font-family: Verdana; font-size: 1em; width: 251px;&quot; cellpadding=&quot;2&quot; cellspacing=&quot;0&quot;&gt;&lt;tbody style=&quot;border-color: var(--border-color);&quot;&gt;&lt;tr style=&quot;border-color: var(--border-color);&quot;&gt;&lt;td style=&quot;border-color: var(--border-color);&quot;&gt;&lt;/td&gt;&lt;/tr&gt;&lt;tr style=&quot;border-color: var(--border-color);&quot;&gt;&lt;td style=&quot;border-color: var(--border-color);&quot;&gt;-sartDate:String&lt;/td&gt;&lt;/tr&gt;&lt;tr style=&quot;border-color: var(--border-color);&quot;&gt;&lt;td style=&quot;border-color: var(--border-color);&quot;&gt;&lt;br style=&quot;border-color: var(--border-color);&quot;&gt;&lt;/td&gt;&lt;/tr&gt;&lt;/tbody&gt;&lt;/table&gt;" style="text;strokeColor=none;fillColor=none;align=left;verticalAlign=top;spacingLeft=4;spacingRight=4;overflow=hidden;rotatable=0;points=[[0,0.5],[1,0.5]];portConstraint=eastwest;whiteSpace=wrap;html=1;fontSize=16;" parent="VqmjkEThSfLMJ_1UgzTR-157" vertex="1">
          <mxGeometry y="164" width="360" height="30" as="geometry" />
        </mxCell>
        <mxCell id="VqmjkEThSfLMJ_1UgzTR-162" value="-numberOfEmployee:Int" style="text;strokeColor=none;fillColor=none;align=left;verticalAlign=top;spacingLeft=4;spacingRight=4;overflow=hidden;rotatable=0;points=[[0,0.5],[1,0.5]];portConstraint=eastwest;whiteSpace=wrap;html=1;fontSize=16;" parent="VqmjkEThSfLMJ_1UgzTR-157" vertex="1">
          <mxGeometry y="194" width="360" height="30" as="geometry" />
        </mxCell>
        <mxCell id="VqmjkEThSfLMJ_1UgzTR-163" value="-city:String" style="text;strokeColor=none;fillColor=none;align=left;verticalAlign=top;spacingLeft=4;spacingRight=4;overflow=hidden;rotatable=0;points=[[0,0.5],[1,0.5]];portConstraint=eastwest;whiteSpace=wrap;html=1;fontSize=16;" parent="VqmjkEThSfLMJ_1UgzTR-157" vertex="1">
          <mxGeometry y="224" width="360" height="30" as="geometry" />
        </mxCell>
        <mxCell id="VqmjkEThSfLMJ_1UgzTR-179" value="-status:String" style="text;strokeColor=none;fillColor=none;align=left;verticalAlign=top;spacingLeft=4;spacingRight=4;overflow=hidden;rotatable=0;points=[[0,0.5],[1,0.5]];portConstraint=eastwest;whiteSpace=wrap;html=1;fontSize=16;" parent="VqmjkEThSfLMJ_1UgzTR-157" vertex="1">
          <mxGeometry y="254" width="360" height="30" as="geometry" />
        </mxCell>
        <mxCell id="VqmjkEThSfLMJ_1UgzTR-180" value="-Requests:int" style="text;strokeColor=none;fillColor=none;align=left;verticalAlign=top;spacingLeft=4;spacingRight=4;overflow=hidden;rotatable=0;points=[[0,0.5],[1,0.5]];portConstraint=eastwest;whiteSpace=wrap;html=1;fontSize=16;" parent="VqmjkEThSfLMJ_1UgzTR-157" vertex="1">
          <mxGeometry y="284" width="360" height="30" as="geometry" />
        </mxCell>
        <mxCell id="dwipJbro_CzZKavcGM6B-13" value="-rating:int" style="text;strokeColor=none;fillColor=none;align=left;verticalAlign=top;spacingLeft=4;spacingRight=4;overflow=hidden;rotatable=0;points=[[0,0.5],[1,0.5]];portConstraint=eastwest;whiteSpace=wrap;html=1;fontSize=16;" vertex="1" parent="VqmjkEThSfLMJ_1UgzTR-157">
          <mxGeometry y="314" width="360" height="30" as="geometry" />
        </mxCell>
        <mxCell id="VqmjkEThSfLMJ_1UgzTR-181" value="&lt;table style=&quot;border-color: var(--border-color); font-family: Verdana; font-size: 1em; width: 251px;&quot; cellpadding=&quot;2&quot; cellspacing=&quot;0&quot;&gt;&lt;tbody style=&quot;border-color: var(--border-color);&quot;&gt;&lt;tr style=&quot;border-color: var(--border-color);&quot;&gt;&lt;td style=&quot;border-color: var(--border-color);&quot;&gt;-isChecked:Boolean&lt;/td&gt;&lt;/tr&gt;&lt;tr style=&quot;border-color: var(--border-color);&quot;&gt;&lt;/tr&gt;&lt;/tbody&gt;&lt;/table&gt;" style="text;strokeColor=none;fillColor=none;align=left;verticalAlign=top;spacingLeft=4;spacingRight=4;overflow=hidden;rotatable=0;points=[[0,0.5],[1,0.5]];portConstraint=eastwest;whiteSpace=wrap;html=1;fontSize=16;" parent="VqmjkEThSfLMJ_1UgzTR-157" vertex="1">
          <mxGeometry y="344" width="360" height="30" as="geometry" />
        </mxCell>
        <mxCell id="VqmjkEThSfLMJ_1UgzTR-164" value="&lt;table style=&quot;border-color: var(--border-color); font-family: Verdana; width: 220px; font-size: 14px;&quot; cellpadding=&quot;2&quot; cellspacing=&quot;0&quot;&gt;&lt;tbody style=&quot;border-color: var(--border-color);&quot;&gt;&lt;tr style=&quot;border-color: var(--border-color);&quot;&gt;&lt;td style=&quot;border-color: var(--border-color);&quot;&gt;&lt;font style=&quot;font-size: 14px;&quot;&gt;-Customer:customer&lt;br style=&quot;border-color: var(--border-color);&quot;&gt;&lt;/font&gt;&lt;/td&gt;&lt;/tr&gt;&lt;tr style=&quot;border-color: var(--border-color);&quot;&gt;&lt;/tr&gt;&lt;/tbody&gt;&lt;/table&gt;" style="text;strokeColor=none;fillColor=none;align=left;verticalAlign=top;spacingLeft=4;spacingRight=4;overflow=hidden;rotatable=0;points=[[0,0.5],[1,0.5]];portConstraint=eastwest;whiteSpace=wrap;html=1;fontSize=16;" parent="VqmjkEThSfLMJ_1UgzTR-157" vertex="1">
          <mxGeometry y="374" width="360" height="30" as="geometry" />
        </mxCell>
        <mxCell id="VqmjkEThSfLMJ_1UgzTR-165" value="&lt;table style=&quot;border-color: var(--border-color); font-family: Verdana; font-size: 1em; width: 251px;&quot; cellpadding=&quot;2&quot; cellspacing=&quot;0&quot;&gt;&lt;tbody style=&quot;border-color: var(--border-color);&quot;&gt;&lt;tr style=&quot;border-color: var(--border-color);&quot;&gt;&lt;td style=&quot;border-color: var(--border-color);&quot;&gt;-Services:service&lt;/td&gt;&lt;/tr&gt;&lt;tr style=&quot;border-color: var(--border-color);&quot;&gt;&lt;/tr&gt;&lt;/tbody&gt;&lt;/table&gt;" style="text;strokeColor=none;fillColor=none;align=left;verticalAlign=top;spacingLeft=4;spacingRight=4;overflow=hidden;rotatable=0;points=[[0,0.5],[1,0.5]];portConstraint=eastwest;whiteSpace=wrap;html=1;fontSize=16;" parent="VqmjkEThSfLMJ_1UgzTR-157" vertex="1">
          <mxGeometry y="404" width="360" height="30" as="geometry" />
        </mxCell>
        <mxCell id="VqmjkEThSfLMJ_1UgzTR-182" value="&lt;table style=&quot;border-color: var(--border-color); font-family: Verdana; font-size: 1em; width: 251px;&quot; cellpadding=&quot;2&quot; cellspacing=&quot;0&quot;&gt;&lt;tbody style=&quot;border-color: var(--border-color);&quot;&gt;&lt;tr style=&quot;border-color: var(--border-color);&quot;&gt;&lt;td style=&quot;border-color: var(--border-color);&quot;&gt;-Order:order&lt;/td&gt;&lt;/tr&gt;&lt;tr style=&quot;border-color: var(--border-color);&quot;&gt;&lt;/tr&gt;&lt;/tbody&gt;&lt;/table&gt;" style="text;strokeColor=none;fillColor=none;align=left;verticalAlign=top;spacingLeft=4;spacingRight=4;overflow=hidden;rotatable=0;points=[[0,0.5],[1,0.5]];portConstraint=eastwest;whiteSpace=wrap;html=1;fontSize=16;" parent="VqmjkEThSfLMJ_1UgzTR-157" vertex="1">
          <mxGeometry y="434" width="360" height="30" as="geometry" />
        </mxCell>
        <mxCell id="VqmjkEThSfLMJ_1UgzTR-166" value="&lt;table style=&quot;border-color: var(--border-color); font-family: Verdana; font-size: 1em; width: 220px;&quot; cellpadding=&quot;2&quot; cellspacing=&quot;0&quot;&gt;&lt;tbody style=&quot;border-color: var(--border-color);&quot;&gt;&lt;tr style=&quot;border-color: var(--border-color);&quot;&gt;&lt;td style=&quot;border-color: var(--border-color);&quot;&gt;-Address:address&lt;br style=&quot;border-color: var(--border-color);&quot;&gt;&lt;/td&gt;&lt;/tr&gt;&lt;tr style=&quot;border-color: var(--border-color);&quot;&gt;&lt;/tr&gt;&lt;/tbody&gt;&lt;/table&gt;" style="text;strokeColor=none;fillColor=none;align=left;verticalAlign=top;spacingLeft=4;spacingRight=4;overflow=hidden;rotatable=0;points=[[0,0.5],[1,0.5]];portConstraint=eastwest;whiteSpace=wrap;html=1;fontSize=16;" parent="VqmjkEThSfLMJ_1UgzTR-157" vertex="1">
          <mxGeometry y="464" width="360" height="30" as="geometry" />
        </mxCell>
        <mxCell id="VqmjkEThSfLMJ_1UgzTR-167" value="&lt;table style=&quot;border-color: var(--border-color); font-family: Verdana; font-size: 14px; width: 180px;&quot; cellpadding=&quot;2&quot; cellspacing=&quot;0&quot;&gt;&lt;tbody style=&quot;border-color: var(--border-color);&quot;&gt;&lt;tr style=&quot;border-color: var(--border-color);&quot;&gt;&lt;td style=&quot;border-color: var(--border-color);&quot;&gt;&lt;/td&gt;&lt;/tr&gt;&lt;tr style=&quot;border-color: var(--border-color);&quot;&gt;&lt;td style=&quot;border-color: var(--border-color);&quot;&gt;-Ticket:ticket&lt;/td&gt;&lt;/tr&gt;&lt;/tbody&gt;&lt;/table&gt;" style="text;strokeColor=none;fillColor=none;align=left;verticalAlign=top;spacingLeft=4;spacingRight=4;overflow=hidden;rotatable=0;points=[[0,0.5],[1,0.5]];portConstraint=eastwest;whiteSpace=wrap;html=1;fontSize=16;" parent="VqmjkEThSfLMJ_1UgzTR-157" vertex="1">
          <mxGeometry y="494" width="360" height="40" as="geometry" />
        </mxCell>
        <mxCell id="VqmjkEThSfLMJ_1UgzTR-168" value="&lt;table style=&quot;border-color: var(--border-color); font-family: Verdana; font-size: 14px; width: 180px;&quot; cellpadding=&quot;2&quot; cellspacing=&quot;0&quot;&gt;&lt;tbody style=&quot;border-color: var(--border-color);&quot;&gt;&lt;tr style=&quot;border-color: var(--border-color);&quot;&gt;&lt;td style=&quot;border-color: var(--border-color);&quot;&gt;&lt;/td&gt;&lt;/tr&gt;&lt;tr style=&quot;border-color: var(--border-color);&quot;&gt;&lt;td style=&quot;border-color: var(--border-color);&quot;&gt;-Evaluation:evaluation&lt;/td&gt;&lt;/tr&gt;&lt;/tbody&gt;&lt;/table&gt;" style="text;strokeColor=none;fillColor=none;align=left;verticalAlign=top;spacingLeft=4;spacingRight=4;overflow=hidden;rotatable=0;points=[[0,0.5],[1,0.5]];portConstraint=eastwest;whiteSpace=wrap;html=1;fontSize=16;" parent="VqmjkEThSfLMJ_1UgzTR-157" vertex="1">
          <mxGeometry y="534" width="360" height="40" as="geometry" />
        </mxCell>
        <mxCell id="VqmjkEThSfLMJ_1UgzTR-169" value="" style="line;strokeWidth=1;fillColor=none;align=left;verticalAlign=middle;spacingTop=-1;spacingLeft=3;spacingRight=3;rotatable=0;labelPosition=right;points=[];portConstraint=eastwest;strokeColor=inherit;fontSize=16;" parent="VqmjkEThSfLMJ_1UgzTR-157" vertex="1">
          <mxGeometry y="574" width="360" height="8" as="geometry" />
        </mxCell>
        <mxCell id="VqmjkEThSfLMJ_1UgzTR-170" value="+CRED:Void" style="text;strokeColor=none;fillColor=none;align=left;verticalAlign=top;spacingLeft=4;spacingRight=4;overflow=hidden;rotatable=0;points=[[0,0.5],[1,0.5]];portConstraint=eastwest;whiteSpace=wrap;html=1;fontSize=16;" parent="VqmjkEThSfLMJ_1UgzTR-157" vertex="1">
          <mxGeometry y="582" width="360" height="26" as="geometry" />
        </mxCell>
        <mxCell id="VqmjkEThSfLMJ_1UgzTR-171" value="+findOrderByCategory&lt;span style=&quot;background-color: initial;&quot;&gt;:&lt;/span&gt;Set&amp;lt;FoodTruck&amp;gt;" style="text;strokeColor=none;fillColor=none;align=left;verticalAlign=top;spacingLeft=4;spacingRight=4;overflow=hidden;rotatable=0;points=[[0,0.5],[1,0.5]];portConstraint=eastwest;whiteSpace=wrap;html=1;fontSize=16;" parent="VqmjkEThSfLMJ_1UgzTR-157" vertex="1">
          <mxGeometry y="608" width="360" height="34" as="geometry" />
        </mxCell>
        <mxCell id="VqmjkEThSfLMJ_1UgzTR-183" value="+acceptOrder&lt;span style=&quot;background-color: initial;&quot;&gt;:Void&lt;/span&gt;" style="text;strokeColor=none;fillColor=none;align=left;verticalAlign=top;spacingLeft=4;spacingRight=4;overflow=hidden;rotatable=0;points=[[0,0.5],[1,0.5]];portConstraint=eastwest;whiteSpace=wrap;html=1;fontSize=16;" parent="VqmjkEThSfLMJ_1UgzTR-157" vertex="1">
          <mxGeometry y="642" width="360" height="34" as="geometry" />
        </mxCell>
        <mxCell id="VqmjkEThSfLMJ_1UgzTR-172" value="+rejectOrder&lt;span style=&quot;background-color: initial;&quot;&gt;:Void&lt;/span&gt;" style="text;strokeColor=none;fillColor=none;align=left;verticalAlign=top;spacingLeft=4;spacingRight=4;overflow=hidden;rotatable=0;points=[[0,0.5],[1,0.5]];portConstraint=eastwest;whiteSpace=wrap;html=1;fontSize=16;" parent="VqmjkEThSfLMJ_1UgzTR-157" vertex="1">
          <mxGeometry y="676" width="360" height="34" as="geometry" />
        </mxCell>
        <mxCell id="VqmjkEThSfLMJ_1UgzTR-184" value="+rejectOrder&lt;span style=&quot;background-color: initial;&quot;&gt;:Void&lt;/span&gt;" style="text;strokeColor=none;fillColor=none;align=left;verticalAlign=top;spacingLeft=4;spacingRight=4;overflow=hidden;rotatable=0;points=[[0,0.5],[1,0.5]];portConstraint=eastwest;whiteSpace=wrap;html=1;fontSize=16;" parent="VqmjkEThSfLMJ_1UgzTR-157" vertex="1">
          <mxGeometry y="710" width="360" height="34" as="geometry" />
        </mxCell>
        <mxCell id="VqmjkEThSfLMJ_1UgzTR-185" value="+getAverageRatingForFood&lt;span style=&quot;background-color: initial;&quot;&gt;:Void&lt;/span&gt;" style="text;strokeColor=none;fillColor=none;align=left;verticalAlign=top;spacingLeft=4;spacingRight=4;overflow=hidden;rotatable=0;points=[[0,0.5],[1,0.5]];portConstraint=eastwest;whiteSpace=wrap;html=1;fontSize=16;" parent="VqmjkEThSfLMJ_1UgzTR-157" vertex="1">
          <mxGeometry y="744" width="360" height="34" as="geometry" />
        </mxCell>
        <mxCell id="VqmjkEThSfLMJ_1UgzTR-173" value="&lt;div style=&quot;text-align: center;&quot;&gt;&lt;span style=&quot;background-color: initial;&quot;&gt;+findFoodTruckByRating:List&amp;lt;FoodTruck&amp;gt;&lt;/span&gt;&lt;/div&gt;&lt;span style=&quot;background-color: initial;&quot;&gt;&amp;gt;&lt;/span&gt;" style="text;strokeColor=none;fillColor=none;align=left;verticalAlign=top;spacingLeft=4;spacingRight=4;overflow=hidden;rotatable=0;points=[[0,0.5],[1,0.5]];portConstraint=eastwest;whiteSpace=wrap;html=1;fontSize=16;" parent="VqmjkEThSfLMJ_1UgzTR-157" vertex="1">
          <mxGeometry y="778" width="360" height="34" as="geometry" />
        </mxCell>
        <mxCell id="VqmjkEThSfLMJ_1UgzTR-174" value="+getByFoodTruckName:Service" style="text;strokeColor=none;fillColor=none;align=left;verticalAlign=top;spacingLeft=4;spacingRight=4;overflow=hidden;rotatable=0;points=[[0,0.5],[1,0.5]];portConstraint=eastwest;whiteSpace=wrap;html=1;fontSize=16;" parent="VqmjkEThSfLMJ_1UgzTR-157" vertex="1">
          <mxGeometry y="812" width="360" height="34" as="geometry" />
        </mxCell>
        <mxCell id="VqmjkEThSfLMJ_1UgzTR-175" value="+getAllFoodTruckNotChecked:List&amp;lt;FoodTruck&amp;gt;" style="text;strokeColor=none;fillColor=none;align=left;verticalAlign=top;spacingLeft=4;spacingRight=4;overflow=hidden;rotatable=0;points=[[0,0.5],[1,0.5]];portConstraint=eastwest;whiteSpace=wrap;html=1;fontSize=16;" parent="VqmjkEThSfLMJ_1UgzTR-157" vertex="1">
          <mxGeometry y="846" width="360" height="34" as="geometry" />
        </mxCell>
        <mxCell id="VqmjkEThSfLMJ_1UgzTR-187" value="SubCategory" style="swimlane;fontStyle=1;align=center;verticalAlign=top;childLayout=stackLayout;horizontal=1;startSize=30;horizontalStack=0;resizeParent=1;resizeParentMax=0;resizeLast=0;collapsible=1;marginBottom=0;whiteSpace=wrap;html=1;fontSize=16;" parent="1" vertex="1">
          <mxGeometry x="-580" y="1200" width="290" height="208" as="geometry">
            <mxRectangle x="340" y="680" width="90" height="30" as="alternateBounds" />
          </mxGeometry>
        </mxCell>
        <mxCell id="VqmjkEThSfLMJ_1UgzTR-188" value="-&amp;nbsp; Id:int" style="text;strokeColor=none;fillColor=none;align=left;verticalAlign=top;spacingLeft=4;spacingRight=4;overflow=hidden;rotatable=0;points=[[0,0.5],[1,0.5]];portConstraint=eastwest;whiteSpace=wrap;html=1;fontSize=16;" parent="VqmjkEThSfLMJ_1UgzTR-187" vertex="1">
          <mxGeometry y="30" width="290" height="34" as="geometry" />
        </mxCell>
        <mxCell id="VqmjkEThSfLMJ_1UgzTR-189" value="&lt;font face=&quot;Verdana&quot;&gt;&lt;span style=&quot;font-size: 14px;&quot;&gt;-&lt;/span&gt;&lt;/font&gt;SubCategoryName" style="text;strokeColor=none;fillColor=none;align=left;verticalAlign=top;spacingLeft=4;spacingRight=4;overflow=hidden;rotatable=0;points=[[0,0.5],[1,0.5]];portConstraint=eastwest;whiteSpace=wrap;html=1;fontSize=16;" parent="VqmjkEThSfLMJ_1UgzTR-187" vertex="1">
          <mxGeometry y="64" width="290" height="40" as="geometry" />
        </mxCell>
        <mxCell id="VqmjkEThSfLMJ_1UgzTR-190" value="&lt;font face=&quot;Verdana&quot;&gt;&lt;span style=&quot;font-size: 14px;&quot;&gt;-&lt;/span&gt;&lt;/font&gt;Items" style="text;strokeColor=none;fillColor=none;align=left;verticalAlign=top;spacingLeft=4;spacingRight=4;overflow=hidden;rotatable=0;points=[[0,0.5],[1,0.5]];portConstraint=eastwest;whiteSpace=wrap;html=1;fontSize=16;" parent="VqmjkEThSfLMJ_1UgzTR-187" vertex="1">
          <mxGeometry y="104" width="290" height="40" as="geometry" />
        </mxCell>
        <mxCell id="VqmjkEThSfLMJ_1UgzTR-191" value="&lt;font face=&quot;Verdana&quot;&gt;&lt;span style=&quot;font-size: 14px;&quot;&gt;-Service:service&lt;/span&gt;&lt;/font&gt;" style="text;strokeColor=none;fillColor=none;align=left;verticalAlign=top;spacingLeft=4;spacingRight=4;overflow=hidden;rotatable=0;points=[[0,0.5],[1,0.5]];portConstraint=eastwest;whiteSpace=wrap;html=1;fontSize=16;" parent="VqmjkEThSfLMJ_1UgzTR-187" vertex="1">
          <mxGeometry y="144" width="290" height="30" as="geometry" />
        </mxCell>
        <mxCell id="VqmjkEThSfLMJ_1UgzTR-194" value="" style="line;strokeWidth=1;fillColor=none;align=left;verticalAlign=middle;spacingTop=-1;spacingLeft=3;spacingRight=3;rotatable=0;labelPosition=right;points=[];portConstraint=eastwest;strokeColor=inherit;fontSize=16;" parent="VqmjkEThSfLMJ_1UgzTR-187" vertex="1">
          <mxGeometry y="174" width="290" height="8" as="geometry" />
        </mxCell>
        <mxCell id="VqmjkEThSfLMJ_1UgzTR-195" value="+CRED:Void" style="text;strokeColor=none;fillColor=none;align=left;verticalAlign=top;spacingLeft=4;spacingRight=4;overflow=hidden;rotatable=0;points=[[0,0.5],[1,0.5]];portConstraint=eastwest;whiteSpace=wrap;html=1;fontSize=16;" parent="VqmjkEThSfLMJ_1UgzTR-187" vertex="1">
          <mxGeometry y="182" width="290" height="26" as="geometry" />
        </mxCell>
        <mxCell id="VqmjkEThSfLMJ_1UgzTR-197" value="Service&lt;br&gt;" style="swimlane;fontStyle=1;align=center;verticalAlign=top;childLayout=stackLayout;horizontal=1;startSize=30;horizontalStack=0;resizeParent=1;resizeParentMax=0;resizeLast=0;collapsible=1;marginBottom=0;whiteSpace=wrap;html=1;fontSize=16;" parent="1" vertex="1">
          <mxGeometry x="-590" y="698" width="290" height="262" as="geometry">
            <mxRectangle x="340" y="680" width="90" height="30" as="alternateBounds" />
          </mxGeometry>
        </mxCell>
        <mxCell id="VqmjkEThSfLMJ_1UgzTR-198" value="-&amp;nbsp; Id:int" style="text;strokeColor=none;fillColor=none;align=left;verticalAlign=top;spacingLeft=4;spacingRight=4;overflow=hidden;rotatable=0;points=[[0,0.5],[1,0.5]];portConstraint=eastwest;whiteSpace=wrap;html=1;fontSize=16;" parent="VqmjkEThSfLMJ_1UgzTR-197" vertex="1">
          <mxGeometry y="30" width="290" height="34" as="geometry" />
        </mxCell>
        <mxCell id="VqmjkEThSfLMJ_1UgzTR-200" value="&lt;table style=&quot;border-color: var(--border-color); font-family: Verdana; width: 180px; font-size: 14px;&quot; cellpadding=&quot;2&quot; cellspacing=&quot;0&quot;&gt;&lt;tbody style=&quot;border-color: var(--border-color);&quot;&gt;&lt;tr style=&quot;border-color: var(--border-color);&quot;&gt;&lt;td style=&quot;border-color: var(--border-color);&quot;&gt;&lt;font style=&quot;font-size: 14px;&quot;&gt;&lt;table style=&quot;border-color: var(--border-color); font-size: 1em; width: 180px;&quot; cellpadding=&quot;2&quot; cellspacing=&quot;0&quot;&gt;&lt;tbody style=&quot;border-color: var(--border-color);&quot;&gt;&lt;tr style=&quot;border-color: var(--border-color);&quot;&gt;&lt;td style=&quot;border-color: var(--border-color);&quot;&gt;&lt;/td&gt;&lt;/tr&gt;&lt;tr style=&quot;border-color: var(--border-color);&quot;&gt;&lt;td style=&quot;border-color: var(--border-color);&quot;&gt;-product:Strimg&lt;/td&gt;&lt;/tr&gt;&lt;tr style=&quot;border-color: var(--border-color);&quot;&gt;&lt;td style=&quot;border-color: var(--border-color);&quot;&gt;&lt;br style=&quot;border-color: var(--border-color);&quot;&gt;&lt;/td&gt;&lt;/tr&gt;&lt;/tbody&gt;&lt;/table&gt;&lt;/font&gt;&lt;/td&gt;&lt;/tr&gt;&lt;tr style=&quot;border-color: var(--border-color);&quot;&gt;&lt;/tr&gt;&lt;/tbody&gt;&lt;/table&gt;" style="text;strokeColor=none;fillColor=none;align=left;verticalAlign=top;spacingLeft=4;spacingRight=4;overflow=hidden;rotatable=0;points=[[0,0.5],[1,0.5]];portConstraint=eastwest;whiteSpace=wrap;html=1;fontSize=16;" parent="VqmjkEThSfLMJ_1UgzTR-197" vertex="1">
          <mxGeometry y="64" width="290" height="40" as="geometry" />
        </mxCell>
        <mxCell id="VqmjkEThSfLMJ_1UgzTR-201" value="&lt;table style=&quot;border-color: var(--border-color); font-family: Verdana; width: 220px; font-size: 14px;&quot; cellpadding=&quot;2&quot; cellspacing=&quot;0&quot;&gt;&lt;tbody style=&quot;border-color: var(--border-color);&quot;&gt;&lt;tr style=&quot;border-color: var(--border-color);&quot;&gt;&lt;td style=&quot;border-color: var(--border-color);&quot;&gt;&lt;font style=&quot;font-size: 14px;&quot;&gt;&lt;table style=&quot;border-color: var(--border-color); font-size: 1em; width: 180px;&quot; cellpadding=&quot;2&quot; cellspacing=&quot;0&quot;&gt;&lt;tbody style=&quot;border-color: var(--border-color);&quot;&gt;&lt;tr style=&quot;border-color: var(--border-color);&quot;&gt;&lt;td style=&quot;border-color: var(--border-color);&quot;&gt;&lt;/td&gt;&lt;/tr&gt;&lt;tr style=&quot;border-color: var(--border-color);&quot;&gt;&lt;td style=&quot;border-color: var(--border-color);&quot;&gt;-Brief:String&lt;/td&gt;&lt;/tr&gt;&lt;tr style=&quot;border-color: var(--border-color);&quot;&gt;&lt;td style=&quot;border-color: var(--border-color);&quot;&gt;&lt;br style=&quot;border-color: var(--border-color);&quot;&gt;&lt;/td&gt;&lt;/tr&gt;&lt;/tbody&gt;&lt;/table&gt;&lt;/font&gt;&lt;/td&gt;&lt;/tr&gt;&lt;tr style=&quot;border-color: var(--border-color);&quot;&gt;&lt;/tr&gt;&lt;/tbody&gt;&lt;/table&gt;" style="text;strokeColor=none;fillColor=none;align=left;verticalAlign=top;spacingLeft=4;spacingRight=4;overflow=hidden;rotatable=0;points=[[0,0.5],[1,0.5]];portConstraint=eastwest;whiteSpace=wrap;html=1;fontSize=16;" parent="VqmjkEThSfLMJ_1UgzTR-197" vertex="1">
          <mxGeometry y="104" width="290" height="30" as="geometry" />
        </mxCell>
        <mxCell id="VqmjkEThSfLMJ_1UgzTR-202" value="&lt;table style=&quot;border-color: var(--border-color); font-family: Verdana; font-size: 1em; width: 180px;&quot; cellpadding=&quot;2&quot; cellspacing=&quot;0&quot;&gt;&lt;tbody style=&quot;border-color: var(--border-color);&quot;&gt;&lt;tr style=&quot;border-color: var(--border-color);&quot;&gt;&lt;td style=&quot;border-color: var(--border-color);&quot;&gt;-startDate:String&lt;br style=&quot;border-color: var(--border-color); font-size: 12px;&quot;&gt;&lt;/td&gt;&lt;/tr&gt;&lt;tr style=&quot;border-color: var(--border-color);&quot;&gt;&lt;/tr&gt;&lt;/tbody&gt;&lt;/table&gt;" style="text;strokeColor=none;fillColor=none;align=left;verticalAlign=top;spacingLeft=4;spacingRight=4;overflow=hidden;rotatable=0;points=[[0,0.5],[1,0.5]];portConstraint=eastwest;whiteSpace=wrap;html=1;fontSize=16;" parent="VqmjkEThSfLMJ_1UgzTR-197" vertex="1">
          <mxGeometry y="134" width="290" height="30" as="geometry" />
        </mxCell>
        <mxCell id="VqmjkEThSfLMJ_1UgzTR-203" value="&lt;table style=&quot;border-color: var(--border-color); font-family: Verdana; font-size: 1em; width: 220px;&quot; cellpadding=&quot;2&quot; cellspacing=&quot;0&quot;&gt;&lt;tbody style=&quot;border-color: var(--border-color);&quot;&gt;&lt;tr style=&quot;border-color: var(--border-color); font-size: 15px;&quot;&gt;&lt;td style=&quot;border-color: var(--border-color);&quot;&gt;&lt;table style=&quot;border-color: var(--border-color); font-size: 1em; width: 220px;&quot; cellpadding=&quot;2&quot; cellspacing=&quot;0&quot;&gt;&lt;tbody style=&quot;border-color: var(--border-color);&quot;&gt;&lt;tr style=&quot;border-color: var(--border-color);&quot;&gt;&lt;td style=&quot;border-color: var(--border-color);&quot;&gt;-FoodTruck:foodTruck&lt;br style=&quot;border-color: var(--border-color);&quot;&gt;&lt;/td&gt;&lt;/tr&gt;&lt;tr style=&quot;border-color: var(--border-color);&quot;&gt;&lt;/tr&gt;&lt;/tbody&gt;&lt;/table&gt;&lt;br&gt;&lt;/td&gt;&lt;/tr&gt;&lt;tr style=&quot;border-color: var(--border-color);&quot;&gt;&lt;/tr&gt;&lt;/tbody&gt;&lt;/table&gt;" style="text;strokeColor=none;fillColor=none;align=left;verticalAlign=top;spacingLeft=4;spacingRight=4;overflow=hidden;rotatable=0;points=[[0,0.5],[1,0.5]];portConstraint=eastwest;whiteSpace=wrap;html=1;fontSize=16;" parent="VqmjkEThSfLMJ_1UgzTR-197" vertex="1">
          <mxGeometry y="164" width="290" height="30" as="geometry" />
        </mxCell>
        <mxCell id="VqmjkEThSfLMJ_1UgzTR-204" value="" style="line;strokeWidth=1;fillColor=none;align=left;verticalAlign=middle;spacingTop=-1;spacingLeft=3;spacingRight=3;rotatable=0;labelPosition=right;points=[];portConstraint=eastwest;strokeColor=inherit;fontSize=16;" parent="VqmjkEThSfLMJ_1UgzTR-197" vertex="1">
          <mxGeometry y="194" width="290" height="8" as="geometry" />
        </mxCell>
        <mxCell id="VqmjkEThSfLMJ_1UgzTR-205" value="+CRED:Void" style="text;strokeColor=none;fillColor=none;align=left;verticalAlign=top;spacingLeft=4;spacingRight=4;overflow=hidden;rotatable=0;points=[[0,0.5],[1,0.5]];portConstraint=eastwest;whiteSpace=wrap;html=1;fontSize=16;" parent="VqmjkEThSfLMJ_1UgzTR-197" vertex="1">
          <mxGeometry y="202" width="290" height="26" as="geometry" />
        </mxCell>
        <mxCell id="VqmjkEThSfLMJ_1UgzTR-206" value="+findAllByFeedback:List&amp;lt;FoodTruck&lt;span style=&quot;background-color: initial;&quot;&gt;&amp;gt;&lt;/span&gt;" style="text;strokeColor=none;fillColor=none;align=left;verticalAlign=top;spacingLeft=4;spacingRight=4;overflow=hidden;rotatable=0;points=[[0,0.5],[1,0.5]];portConstraint=eastwest;whiteSpace=wrap;html=1;fontSize=16;" parent="VqmjkEThSfLMJ_1UgzTR-197" vertex="1">
          <mxGeometry y="228" width="290" height="34" as="geometry" />
        </mxCell>
        <mxCell id="dwipJbro_CzZKavcGM6B-1" value="Category&lt;br&gt;" style="swimlane;fontStyle=1;align=center;verticalAlign=top;childLayout=stackLayout;horizontal=1;startSize=30;horizontalStack=0;resizeParent=1;resizeParentMax=0;resizeLast=0;collapsible=1;marginBottom=0;whiteSpace=wrap;html=1;fontSize=16;" vertex="1" parent="1">
          <mxGeometry x="-520" y="390" width="290" height="168" as="geometry">
            <mxRectangle x="340" y="680" width="90" height="30" as="alternateBounds" />
          </mxGeometry>
        </mxCell>
        <mxCell id="dwipJbro_CzZKavcGM6B-2" value="-&amp;nbsp; Id:int" style="text;strokeColor=none;fillColor=none;align=left;verticalAlign=top;spacingLeft=4;spacingRight=4;overflow=hidden;rotatable=0;points=[[0,0.5],[1,0.5]];portConstraint=eastwest;whiteSpace=wrap;html=1;fontSize=16;" vertex="1" parent="dwipJbro_CzZKavcGM6B-1">
          <mxGeometry y="30" width="290" height="34" as="geometry" />
        </mxCell>
        <mxCell id="dwipJbro_CzZKavcGM6B-3" value="&lt;table style=&quot;border-color: var(--border-color); font-family: Verdana; width: 180px; font-size: 14px;&quot; cellpadding=&quot;2&quot; cellspacing=&quot;0&quot;&gt;&lt;tbody style=&quot;border-color: var(--border-color);&quot;&gt;&lt;tr style=&quot;border-color: var(--border-color);&quot;&gt;&lt;td style=&quot;border-color: var(--border-color);&quot;&gt;&lt;font style=&quot;font-size: 14px;&quot;&gt;-name:String&lt;/font&gt;&lt;/td&gt;&lt;/tr&gt;&lt;tr style=&quot;border-color: var(--border-color);&quot;&gt;&lt;/tr&gt;&lt;/tbody&gt;&lt;/table&gt;" style="text;strokeColor=none;fillColor=none;align=left;verticalAlign=top;spacingLeft=4;spacingRight=4;overflow=hidden;rotatable=0;points=[[0,0.5],[1,0.5]];portConstraint=eastwest;whiteSpace=wrap;html=1;fontSize=16;" vertex="1" parent="dwipJbro_CzZKavcGM6B-1">
          <mxGeometry y="64" width="290" height="40" as="geometry" />
        </mxCell>
        <mxCell id="dwipJbro_CzZKavcGM6B-7" value="&lt;table style=&quot;border-color: var(--border-color); font-family: Verdana; font-size: 1em; width: 220px;&quot; cellpadding=&quot;2&quot; cellspacing=&quot;0&quot;&gt;&lt;tbody style=&quot;border-color: var(--border-color);&quot;&gt;&lt;tr style=&quot;border-color: var(--border-color); font-size: 15px;&quot;&gt;&lt;td style=&quot;border-color: var(--border-color);&quot;&gt;&lt;table style=&quot;border-color: var(--border-color); font-size: 1em; width: 220px;&quot; cellpadding=&quot;2&quot; cellspacing=&quot;0&quot;&gt;&lt;tbody style=&quot;border-color: var(--border-color);&quot;&gt;&lt;tr style=&quot;border-color: var(--border-color);&quot;&gt;&lt;td style=&quot;border-color: var(--border-color);&quot;&gt;-FoodTruck:foodTruck&lt;br style=&quot;border-color: var(--border-color);&quot;&gt;&lt;/td&gt;&lt;/tr&gt;&lt;tr style=&quot;border-color: var(--border-color);&quot;&gt;&lt;/tr&gt;&lt;/tbody&gt;&lt;/table&gt;&lt;br&gt;&lt;/td&gt;&lt;/tr&gt;&lt;tr style=&quot;border-color: var(--border-color);&quot;&gt;&lt;/tr&gt;&lt;/tbody&gt;&lt;/table&gt;" style="text;strokeColor=none;fillColor=none;align=left;verticalAlign=top;spacingLeft=4;spacingRight=4;overflow=hidden;rotatable=0;points=[[0,0.5],[1,0.5]];portConstraint=eastwest;whiteSpace=wrap;html=1;fontSize=16;" vertex="1" parent="dwipJbro_CzZKavcGM6B-1">
          <mxGeometry y="104" width="290" height="30" as="geometry" />
        </mxCell>
        <mxCell id="dwipJbro_CzZKavcGM6B-8" value="" style="line;strokeWidth=1;fillColor=none;align=left;verticalAlign=middle;spacingTop=-1;spacingLeft=3;spacingRight=3;rotatable=0;labelPosition=right;points=[];portConstraint=eastwest;strokeColor=inherit;fontSize=16;" vertex="1" parent="dwipJbro_CzZKavcGM6B-1">
          <mxGeometry y="134" width="290" height="8" as="geometry" />
        </mxCell>
        <mxCell id="dwipJbro_CzZKavcGM6B-9" value="+CRED:Void" style="text;strokeColor=none;fillColor=none;align=left;verticalAlign=top;spacingLeft=4;spacingRight=4;overflow=hidden;rotatable=0;points=[[0,0.5],[1,0.5]];portConstraint=eastwest;whiteSpace=wrap;html=1;fontSize=16;" vertex="1" parent="dwipJbro_CzZKavcGM6B-1">
          <mxGeometry y="142" width="290" height="26" as="geometry" />
        </mxCell>
        <mxCell id="dwipJbro_CzZKavcGM6B-11" value="" style="endArrow=block;endFill=1;html=1;edgeStyle=orthogonalEdgeStyle;align=left;verticalAlign=top;rounded=0;entryX=1.006;entryY=0.016;entryDx=0;entryDy=0;exitX=0;exitY=0;exitDx=0;exitDy=0;entryPerimeter=0;" edge="1" parent="1" source="VqmjkEThSfLMJ_1UgzTR-147" target="VqmjkEThSfLMJ_1UgzTR-157">
          <mxGeometry x="-1" relative="1" as="geometry">
            <mxPoint x="-290" y="731" as="sourcePoint" />
            <mxPoint x="-497" y="1210" as="targetPoint" />
          </mxGeometry>
        </mxCell>
        <mxCell id="dwipJbro_CzZKavcGM6B-12" value="1" style="edgeLabel;resizable=0;html=1;align=left;verticalAlign=bottom;" connectable="0" vertex="1" parent="dwipJbro_CzZKavcGM6B-11">
          <mxGeometry x="-1" relative="1" as="geometry">
            <mxPoint x="10" y="20" as="offset" />
          </mxGeometry>
        </mxCell>
      </root>
    </mxGraphModel>
  </diagram>
</mxfile>
